<?xml version="1.0" encoding="UTF-8" standalone="no"?>
<!DOCTYPE svg PUBLIC "-//W3C//DTD SVG 1.1//EN"
 "http://www.w3.org/Graphics/SVG/1.1/DTD/svg11.dtd">
<!-- Generated by graphviz version 2.38.0 (20140413.2041)
 -->
<!-- Title: FST Pages: 1 -->
<svg width="61pt" height="316pt"
 viewBox="0.00 0.00 61.00 316.00" xmlns="http://www.w3.org/2000/svg" xmlns:xlink="http://www.w3.org/1999/xlink">
<g id="graph0" class="graph" transform="scale(1 1) rotate(0) translate(4 312)">
<title>FST</title>
<polygon fill="white" stroke="none" points="-4,4 -4,-312 57,-312 57,4 -4,4"/>
<!-- 0 -->
<g id="node1" class="node"><title>0</title>
<ellipse fill="none" stroke="black" stroke-width="2" cx="26.5" cy="-22" rx="18" ry="18"/>
<ellipse fill="none" stroke="black" stroke-width="2" cx="26.5" cy="-22" rx="22" ry="22"/>
<text text-anchor="middle" x="26.5" y="-18.3" font-family="Times,serif" font-size="14.00">0</text>
</g>
<!-- 0&#45;&gt;0 -->
<g id="edge1" class="edge"><title>0&#45;&gt;0</title>
<path fill="none" stroke="black" d="M25.0179,-44.2124C24.8966,-53.7952 25.3906,-62 26.5,-62 27.176,-62 27.6235,-58.9533 27.8426,-54.4045"/>
<polygon fill="black" stroke="black" points="31.3448,-54.2593 27.9821,-44.2124 24.3454,-54.1635 31.3448,-54.2593"/>
<text text-anchor="middle" x="26.5" y="-65.8" font-family="Times,serif" font-size="14.00">DET:the</text>
</g>
<!-- 0&#45;&gt;0 -->
<g id="edge2" class="edge"><title>0&#45;&gt;0</title>
<path fill="none" stroke="black" d="M23.9219,-44.019C22.8906,-61.724 23.75,-80 26.5,-80 28.7129,-80 29.7016,-68.1659 29.466,-54.318"/>
<polygon fill="black" stroke="black" points="32.9521,-53.8802 29.0781,-44.019 25.9571,-54.1437 32.9521,-53.8802"/>
<text text-anchor="middle" x="26.5" y="-83.8" font-family="Times,serif" font-size="14.00">DET:a</text>
</g>
<!-- 0&#45;&gt;0 -->
<g id="edge3" class="edge"><title>0&#45;&gt;0</title>
<path fill="none" stroke="black" d="M23.1964,-43.7844C20.8519,-68.9032 21.9531,-98 26.5,-98 30.443,-98 31.7948,-76.1188 30.5554,-53.9257"/>
<polygon fill="black" stroke="black" points="34.0334,-53.4983 29.8036,-43.7844 27.0525,-54.0158 34.0334,-53.4983"/>
<text text-anchor="middle" x="26.5" y="-101.8" font-family="Times,serif" font-size="14.00">N:cat</text>
</g>
<!-- 0&#45;&gt;0 -->
<g id="edge4" class="edge"><title>0&#45;&gt;0</title>
<path fill="none" stroke="black" d="M22.6713,-43.714C18.8175,-75.815 20.0938,-116 26.5,-116 32.2556,-116 33.8703,-83.563 31.3442,-53.6944"/>
<polygon fill="black" stroke="black" points="34.8231,-53.3084 30.3287,-43.714 27.859,-54.017 34.8231,-53.3084"/>
<text text-anchor="middle" x="26.5" y="-119.8" font-family="Times,serif" font-size="14.00">N:dog</text>
</g>
<!-- 0&#45;&gt;0 -->
<g id="edge5" class="edge"><title>0&#45;&gt;0</title>
<path fill="none" stroke="black" d="M22.2685,-43.7156C16.7887,-82.5524 18.1992,-134 26.5,-134 34.0874,-134 35.918,-91.015 31.9916,-53.967"/>
<polygon fill="black" stroke="black" points="35.4254,-53.2138 30.7315,-43.7156 28.4777,-54.0679 35.4254,-53.2138"/>
<text text-anchor="middle" x="26.5" y="-137.8" font-family="Times,serif" font-size="14.00">N:mouse</text>
</g>
<!-- 0&#45;&gt;0 -->
<g id="edge6" class="edge"><title>0&#45;&gt;0</title>
<path fill="none" stroke="black" d="M21.9495,-43.7361C14.7644,-89.1529 16.2812,-152 26.5,-152 35.9803,-152 37.9709,-97.9081 32.4719,-53.8251"/>
<polygon fill="black" stroke="black" points="35.9114,-53.15 31.0505,-43.7361 28.9799,-54.1266 35.9114,-53.15"/>
<text text-anchor="middle" x="26.5" y="-155.8" font-family="Times,serif" font-size="14.00">V:chased</text>
</g>
<!-- 0&#45;&gt;0 -->
<g id="edge7" class="edge"><title>0&#45;&gt;0</title>
<path fill="none" stroke="black" d="M21.7231,-43.5699C12.7397,-95.4667 14.332,-170 26.5,-170 37.9075,-170 40.0199,-104.492 32.8373,-53.5421"/>
<polygon fill="black" stroke="black" points="36.2809,-52.9086 31.2769,-43.5699 29.365,-53.9908 36.2809,-52.9086"/>
<text text-anchor="middle" x="26.5" y="-173.8" font-family="Times,serif" font-size="14.00">V:bit</text>
</g>
<!-- 0&#45;&gt;0 -->
<g id="edge8" class="edge"><title>0&#45;&gt;0</title>
<path fill="none" stroke="black" d="M21.5342,-43.4656C10.7197,-101.751 12.375,-188 26.5,-188 39.825,-188 42.0528,-111.245 33.1834,-53.618"/>
<polygon fill="black" stroke="black" points="36.585,-52.7417 31.4658,-43.4656 29.6831,-53.9094 36.585,-52.7417"/>
<text text-anchor="middle" x="26.5" y="-191.8" font-family="Times,serif" font-size="14.00">AND:and</text>
</g>
</g>
</svg>
