<?xml version="1.0" encoding="UTF-8" standalone="no"?>
<!DOCTYPE svg PUBLIC "-//W3C//DTD SVG 1.1//EN"
 "http://www.w3.org/Graphics/SVG/1.1/DTD/svg11.dtd">
<!-- Generated by graphviz version 2.38.0 (20140413.2041)
 -->
<!-- Title: FST Pages: 1 -->
<svg width="519pt" height="52pt"
 viewBox="0.00 0.00 519.00 52.00" xmlns="http://www.w3.org/2000/svg" xmlns:xlink="http://www.w3.org/1999/xlink">
<g id="graph0" class="graph" transform="scale(1 1) rotate(0) translate(4 48)">
<title>FST</title>
<polygon fill="white" stroke="none" points="-4,4 -4,-48 515,-48 515,4 -4,4"/>
<!-- 0 -->
<g id="node1" class="node"><title>0</title>
<ellipse fill="none" stroke="black" stroke-width="2" cx="18" cy="-22" rx="18" ry="18"/>
<text text-anchor="middle" x="18" y="-18.3" font-family="Times,serif" font-size="14.00">0</text>
</g>
<!-- 1 -->
<g id="node2" class="node"><title>1</title>
<ellipse fill="none" stroke="black" cx="121" cy="-22" rx="18" ry="18"/>
<text text-anchor="middle" x="121" y="-18.3" font-family="Times,serif" font-size="14.00">1</text>
</g>
<!-- 0&#45;&gt;1 -->
<g id="edge1" class="edge"><title>0&#45;&gt;1</title>
<path fill="none" stroke="black" d="M36.1333,-22C51.5863,-22 74.5842,-22 92.5907,-22"/>
<polygon fill="black" stroke="black" points="92.7827,-25.5001 102.783,-22 92.7826,-18.5001 92.7827,-25.5001"/>
<text text-anchor="middle" x="69.5" y="-25.8" font-family="Times,serif" font-size="14.00">DET:2</text>
</g>
<!-- 2 -->
<g id="node3" class="node"><title>2</title>
<ellipse fill="none" stroke="black" cx="208" cy="-22" rx="18" ry="18"/>
<text text-anchor="middle" x="208" y="-18.3" font-family="Times,serif" font-size="14.00">2</text>
</g>
<!-- 1&#45;&gt;2 -->
<g id="edge2" class="edge"><title>1&#45;&gt;2</title>
<path fill="none" stroke="black" d="M139.201,-22C150.837,-22 166.452,-22 179.763,-22"/>
<polygon fill="black" stroke="black" points="179.825,-25.5001 189.825,-22 179.825,-18.5001 179.825,-25.5001"/>
<text text-anchor="middle" x="164.5" y="-25.8" font-family="Times,serif" font-size="14.00">N:3</text>
</g>
<!-- 3 -->
<g id="node4" class="node"><title>3</title>
<ellipse fill="none" stroke="black" cx="295" cy="-22" rx="18" ry="18"/>
<text text-anchor="middle" x="295" y="-18.3" font-family="Times,serif" font-size="14.00">3</text>
</g>
<!-- 2&#45;&gt;3 -->
<g id="edge3" class="edge"><title>2&#45;&gt;3</title>
<path fill="none" stroke="black" d="M226.201,-22C237.837,-22 253.452,-22 266.763,-22"/>
<polygon fill="black" stroke="black" points="266.825,-25.5001 276.825,-22 266.825,-18.5001 266.825,-25.5001"/>
<text text-anchor="middle" x="251.5" y="-25.8" font-family="Times,serif" font-size="14.00">V:1</text>
</g>
<!-- 4 -->
<g id="node5" class="node"><title>4</title>
<ellipse fill="none" stroke="black" cx="398" cy="-22" rx="18" ry="18"/>
<text text-anchor="middle" x="398" y="-18.3" font-family="Times,serif" font-size="14.00">4</text>
</g>
<!-- 3&#45;&gt;4 -->
<g id="edge4" class="edge"><title>3&#45;&gt;4</title>
<path fill="none" stroke="black" d="M313.133,-22C328.586,-22 351.584,-22 369.591,-22"/>
<polygon fill="black" stroke="black" points="369.783,-25.5001 379.783,-22 369.783,-18.5001 369.783,-25.5001"/>
<text text-anchor="middle" x="346.5" y="-25.8" font-family="Times,serif" font-size="14.00">DET:2</text>
</g>
<!-- 5 -->
<g id="node6" class="node"><title>5</title>
<ellipse fill="none" stroke="black" cx="489" cy="-22" rx="18" ry="18"/>
<ellipse fill="none" stroke="black" cx="489" cy="-22" rx="22" ry="22"/>
<text text-anchor="middle" x="489" y="-18.3" font-family="Times,serif" font-size="14.00">5</text>
</g>
<!-- 4&#45;&gt;5 -->
<g id="edge5" class="edge"><title>4&#45;&gt;5</title>
<path fill="none" stroke="black" d="M416.16,-22C427.559,-22 442.866,-22 456.422,-22"/>
<polygon fill="black" stroke="black" points="456.81,-25.5001 466.809,-22 456.809,-18.5001 456.81,-25.5001"/>
<text text-anchor="middle" x="441.5" y="-25.8" font-family="Times,serif" font-size="14.00">N:3</text>
</g>
</g>
</svg>
