<?xml version="1.0" encoding="UTF-8" standalone="no"?>
<!DOCTYPE svg PUBLIC "-//W3C//DTD SVG 1.1//EN"
 "http://www.w3.org/Graphics/SVG/1.1/DTD/svg11.dtd">
<!-- Generated by graphviz version 2.38.0 (20140413.2041)
 -->
<!-- Title: FST Pages: 1 -->
<svg width="612pt" height="55pt"
 viewBox="0.00 0.00 612.00 54.91" xmlns="http://www.w3.org/2000/svg" xmlns:xlink="http://www.w3.org/1999/xlink">
<g id="graph0" class="graph" transform="scale(1 1) rotate(0) translate(4 50.9119)">
<title>FST</title>
<polygon fill="white" stroke="none" points="-4,4 -4,-50.9119 608,-50.9119 608,4 -4,4"/>
<!-- 0 -->
<g id="node1" class="node"><title>0</title>
<ellipse fill="none" stroke="black" stroke-width="2" cx="18" cy="-24.9119" rx="18" ry="18"/>
<text text-anchor="middle" x="18" y="-21.2119" font-family="Times,serif" font-size="14.00">0</text>
</g>
<!-- 1 -->
<g id="node2" class="node"><title>1</title>
<ellipse fill="none" stroke="black" cx="151" cy="-24.9119" rx="18" ry="18"/>
<text text-anchor="middle" x="151" y="-21.2119" font-family="Times,serif" font-size="14.00">1</text>
</g>
<!-- 0&#45;&gt;1 -->
<g id="edge1" class="edge"><title>0&#45;&gt;1</title>
<path fill="none" stroke="black" d="M36.126,-24.9119C58.0938,-24.9119 96.4638,-24.9119 122.534,-24.9119"/>
<polygon fill="black" stroke="black" points="122.87,-28.412 132.87,-24.9119 122.87,-21.412 122.87,-28.412"/>
<text text-anchor="middle" x="84.5" y="-28.7119" font-family="Times,serif" font-size="14.00">DET:chased</text>
</g>
<!-- 0&#45;&gt;1 -->
<g id="edge2" class="edge"><title>0&#45;&gt;1</title>
<path fill="none" stroke="black" d="M32.9086,-14.4511C38.2739,-11.0271 44.6448,-7.65643 51,-5.91191 79.7155,1.97064 89.2845,1.97064 118,-5.91191 121.078,-6.75691 124.16,-7.98344 127.13,-9.41275"/>
<polygon fill="black" stroke="black" points="125.659,-12.6012 136.091,-14.4511 129.09,-6.49941 125.659,-12.6012"/>
<text text-anchor="middle" x="84.5" y="-9.71191" font-family="Times,serif" font-size="14.00">DET:bit</text>
</g>
<!-- 2 -->
<g id="node3" class="node"><title>2</title>
<ellipse fill="none" stroke="black" cx="248" cy="-24.9119" rx="18" ry="18"/>
<text text-anchor="middle" x="248" y="-21.2119" font-family="Times,serif" font-size="14.00">2</text>
</g>
<!-- 1&#45;&gt;2 -->
<g id="edge3" class="edge"><title>1&#45;&gt;2</title>
<path fill="none" stroke="black" d="M169.424,-24.9119C183.352,-24.9119 203.139,-24.9119 219.243,-24.9119"/>
<polygon fill="black" stroke="black" points="219.686,-28.412 229.686,-24.9119 219.686,-21.412 219.686,-28.412"/>
<text text-anchor="middle" x="199.5" y="-28.7119" font-family="Times,serif" font-size="14.00">N:the</text>
</g>
<!-- 1&#45;&gt;2 -->
<g id="edge4" class="edge"><title>1&#45;&gt;2</title>
<path fill="none" stroke="black" d="M165.909,-14.4511C171.274,-11.0271 177.645,-7.65643 184,-5.91191 197.286,-2.26476 201.714,-2.26476 215,-5.91191 218.078,-6.75691 221.16,-7.98344 224.13,-9.41275"/>
<polygon fill="black" stroke="black" points="222.659,-12.6012 233.091,-14.4511 226.09,-6.49941 222.659,-12.6012"/>
<text text-anchor="middle" x="199.5" y="-9.71191" font-family="Times,serif" font-size="14.00">N:a</text>
</g>
<!-- 3 -->
<g id="node4" class="node"><title>3</title>
<ellipse fill="none" stroke="black" cx="348" cy="-24.9119" rx="18" ry="18"/>
<text text-anchor="middle" x="348" y="-21.2119" font-family="Times,serif" font-size="14.00">3</text>
</g>
<!-- 2&#45;&gt;3 -->
<g id="edge5" class="edge"><title>2&#45;&gt;3</title>
<path fill="none" stroke="black" d="M266.07,-24.9119C280.875,-24.9119 302.568,-24.9119 319.769,-24.9119"/>
<polygon fill="black" stroke="black" points="319.797,-28.412 329.797,-24.9119 319.796,-21.412 319.797,-28.412"/>
<text text-anchor="middle" x="298" y="-28.7119" font-family="Times,serif" font-size="14.00">V:and</text>
</g>
<!-- 4 -->
<g id="node5" class="node"><title>4</title>
<ellipse fill="none" stroke="black" cx="481" cy="-24.9119" rx="18" ry="18"/>
<text text-anchor="middle" x="481" y="-21.2119" font-family="Times,serif" font-size="14.00">4</text>
</g>
<!-- 3&#45;&gt;4 -->
<g id="edge6" class="edge"><title>3&#45;&gt;4</title>
<path fill="none" stroke="black" d="M366.126,-24.9119C388.094,-24.9119 426.464,-24.9119 452.534,-24.9119"/>
<polygon fill="black" stroke="black" points="452.87,-28.412 462.87,-24.9119 452.87,-21.412 452.87,-28.412"/>
<text text-anchor="middle" x="414.5" y="-28.7119" font-family="Times,serif" font-size="14.00">DET:chased</text>
</g>
<!-- 3&#45;&gt;4 -->
<g id="edge7" class="edge"><title>3&#45;&gt;4</title>
<path fill="none" stroke="black" d="M362.909,-14.4511C368.274,-11.0271 374.645,-7.65643 381,-5.91191 409.716,1.97064 419.284,1.97064 448,-5.91191 451.078,-6.75691 454.16,-7.98344 457.13,-9.41275"/>
<polygon fill="black" stroke="black" points="455.659,-12.6012 466.091,-14.4511 459.09,-6.49941 455.659,-12.6012"/>
<text text-anchor="middle" x="414.5" y="-9.71191" font-family="Times,serif" font-size="14.00">DET:bit</text>
</g>
<!-- 5 -->
<g id="node6" class="node"><title>5</title>
<ellipse fill="none" stroke="black" cx="582" cy="-24.9119" rx="18" ry="18"/>
<ellipse fill="none" stroke="black" cx="582" cy="-24.9119" rx="22" ry="22"/>
<text text-anchor="middle" x="582" y="-21.2119" font-family="Times,serif" font-size="14.00">5</text>
</g>
<!-- 4&#45;&gt;5 -->
<g id="edge8" class="edge"><title>4&#45;&gt;5</title>
<path fill="none" stroke="black" d="M499.244,-24.9119C513.06,-24.9119 532.812,-24.9119 549.44,-24.9119"/>
<polygon fill="black" stroke="black" points="549.823,-28.412 559.823,-24.9119 549.823,-21.412 549.823,-28.412"/>
<text text-anchor="middle" x="529.5" y="-28.7119" font-family="Times,serif" font-size="14.00">N:the</text>
</g>
<!-- 4&#45;&gt;5 -->
<g id="edge9" class="edge"><title>4&#45;&gt;5</title>
<path fill="none" stroke="black" d="M495.909,-14.4511C501.274,-11.0271 507.645,-7.65643 514,-5.91191 527.286,-2.26476 531.626,-2.59929 545,-5.91191 547.99,-6.65263 551.006,-7.69204 553.952,-8.90694"/>
<polygon fill="black" stroke="black" points="552.476,-12.0804 563.008,-13.2347 555.494,-5.76467 552.476,-12.0804"/>
<text text-anchor="middle" x="529.5" y="-9.71191" font-family="Times,serif" font-size="14.00">N:a</text>
</g>
</g>
</svg>
