<?xml version="1.0" encoding="UTF-8" standalone="no"?>
<!DOCTYPE svg PUBLIC "-//W3C//DTD SVG 1.1//EN"
 "http://www.w3.org/Graphics/SVG/1.1/DTD/svg11.dtd">
<!-- Generated by graphviz version 2.38.0 (20140413.2041)
 -->
<!-- Title: FST Pages: 1 -->
<svg width="612pt" height="21pt"
 viewBox="0.00 0.00 612.00 21.09" xmlns="http://www.w3.org/2000/svg" xmlns:xlink="http://www.w3.org/1999/xlink">
<g id="graph0" class="graph" transform="scale(0.383464 0.383464) rotate(0) translate(4 50.9965)">
<title>FST</title>
<polygon fill="white" stroke="none" points="-4,4 -4,-50.9965 1591.98,-50.9965 1591.98,4 -4,4"/>
<!-- 0 -->
<g id="node1" class="node"><title>0</title>
<ellipse fill="none" stroke="black" stroke-width="2" cx="18" cy="-23.4983" rx="18" ry="18"/>
<text text-anchor="middle" x="18" y="-19.7983" font-family="Times,serif" font-size="14.00">0</text>
</g>
<!-- 1 -->
<g id="node2" class="node"><title>1</title>
<ellipse fill="none" stroke="black" cx="121" cy="-23.4983" rx="18" ry="18"/>
<text text-anchor="middle" x="121" y="-19.7983" font-family="Times,serif" font-size="14.00">1</text>
</g>
<!-- 0&#45;&gt;1 -->
<g id="edge1" class="edge"><title>0&#45;&gt;1</title>
<path fill="none" stroke="black" d="M36.1333,-23.4983C51.5863,-23.4983 74.5842,-23.4983 92.5907,-23.4983"/>
<polygon fill="black" stroke="black" points="92.7827,-26.9984 102.783,-23.4983 92.7826,-19.9984 92.7827,-26.9984"/>
<text text-anchor="middle" x="69.5" y="-27.2983" font-family="Times,serif" font-size="14.00">DET:3</text>
</g>
<!-- 2 -->
<g id="node3" class="node"><title>2</title>
<ellipse fill="none" stroke="black" cx="208" cy="-23.4983" rx="18" ry="18"/>
<text text-anchor="middle" x="208" y="-19.7983" font-family="Times,serif" font-size="14.00">2</text>
</g>
<!-- 1&#45;&gt;2 -->
<g id="edge2" class="edge"><title>1&#45;&gt;2</title>
<path fill="none" stroke="black" d="M139.201,-23.4983C150.837,-23.4983 166.452,-23.4983 179.763,-23.4983"/>
<polygon fill="black" stroke="black" points="179.825,-26.9984 189.825,-23.4983 179.825,-19.9984 179.825,-26.9984"/>
<text text-anchor="middle" x="164.5" y="-27.2983" font-family="Times,serif" font-size="14.00">N:4</text>
</g>
<!-- 3 -->
<g id="node4" class="node"><title>3</title>
<ellipse fill="none" stroke="black" cx="295" cy="-23.4983" rx="18" ry="18"/>
<text text-anchor="middle" x="295" y="-19.7983" font-family="Times,serif" font-size="14.00">3</text>
</g>
<!-- 2&#45;&gt;3 -->
<g id="edge3" class="edge"><title>2&#45;&gt;3</title>
<path fill="none" stroke="black" d="M226.201,-23.4983C237.837,-23.4983 253.452,-23.4983 266.763,-23.4983"/>
<polygon fill="black" stroke="black" points="266.825,-26.9984 276.825,-23.4983 266.825,-19.9984 266.825,-26.9984"/>
<text text-anchor="middle" x="251.5" y="-27.2983" font-family="Times,serif" font-size="14.00">V:2</text>
</g>
<!-- 4 -->
<g id="node5" class="node"><title>4</title>
<ellipse fill="none" stroke="black" cx="398" cy="-23.4983" rx="18" ry="18"/>
<text text-anchor="middle" x="398" y="-19.7983" font-family="Times,serif" font-size="14.00">4</text>
</g>
<!-- 3&#45;&gt;4 -->
<g id="edge4" class="edge"><title>3&#45;&gt;4</title>
<path fill="none" stroke="black" d="M313.133,-23.4983C328.586,-23.4983 351.584,-23.4983 369.591,-23.4983"/>
<polygon fill="black" stroke="black" points="369.783,-26.9984 379.783,-23.4983 369.783,-19.9984 369.783,-26.9984"/>
<text text-anchor="middle" x="346.5" y="-27.2983" font-family="Times,serif" font-size="14.00">DET:3</text>
</g>
<!-- 5 -->
<g id="node6" class="node"><title>5</title>
<ellipse fill="none" stroke="black" cx="489" cy="-23.4983" rx="18" ry="18"/>
<ellipse fill="none" stroke="black" cx="489" cy="-23.4983" rx="22" ry="22"/>
<text text-anchor="middle" x="489" y="-19.7983" font-family="Times,serif" font-size="14.00">5</text>
</g>
<!-- 4&#45;&gt;5 -->
<g id="edge5" class="edge"><title>4&#45;&gt;5</title>
<path fill="none" stroke="black" d="M416.16,-23.4983C427.559,-23.4983 442.866,-23.4983 456.422,-23.4983"/>
<polygon fill="black" stroke="black" points="456.81,-26.9984 466.809,-23.4983 456.809,-19.9984 456.81,-26.9984"/>
<text text-anchor="middle" x="441.5" y="-27.2983" font-family="Times,serif" font-size="14.00">N:4</text>
</g>
<!-- 6 -->
<g id="node7" class="node"><title>6</title>
<ellipse fill="none" stroke="black" cx="596" cy="-23.4983" rx="18" ry="18"/>
<text text-anchor="middle" x="596" y="-19.7983" font-family="Times,serif" font-size="14.00">6</text>
</g>
<!-- 5&#45;&gt;6 -->
<g id="edge6" class="edge"><title>5&#45;&gt;6</title>
<path fill="none" stroke="black" d="M511.248,-23.4983C527.525,-23.4983 550.104,-23.4983 567.716,-23.4983"/>
<polygon fill="black" stroke="black" points="567.94,-26.9984 577.94,-23.4983 567.94,-19.9984 567.94,-26.9984"/>
<text text-anchor="middle" x="544.5" y="-27.2983" font-family="Times,serif" font-size="14.00">DET:3</text>
</g>
<!-- 7 -->
<g id="node8" class="node"><title>7</title>
<ellipse fill="none" stroke="black" cx="683" cy="-23.4983" rx="18" ry="18"/>
<text text-anchor="middle" x="683" y="-19.7983" font-family="Times,serif" font-size="14.00">7</text>
</g>
<!-- 6&#45;&gt;7 -->
<g id="edge7" class="edge"><title>6&#45;&gt;7</title>
<path fill="none" stroke="black" d="M614.201,-23.4983C625.837,-23.4983 641.452,-23.4983 654.763,-23.4983"/>
<polygon fill="black" stroke="black" points="654.825,-26.9984 664.825,-23.4983 654.825,-19.9984 654.825,-26.9984"/>
<text text-anchor="middle" x="639.5" y="-27.2983" font-family="Times,serif" font-size="14.00">N:4</text>
</g>
<!-- 8 -->
<g id="node9" class="node"><title>8</title>
<ellipse fill="none" stroke="black" cx="770" cy="-23.4983" rx="18" ry="18"/>
<text text-anchor="middle" x="770" y="-19.7983" font-family="Times,serif" font-size="14.00">8</text>
</g>
<!-- 7&#45;&gt;8 -->
<g id="edge8" class="edge"><title>7&#45;&gt;8</title>
<path fill="none" stroke="black" d="M701.201,-23.4983C712.837,-23.4983 728.452,-23.4983 741.763,-23.4983"/>
<polygon fill="black" stroke="black" points="741.825,-26.9984 751.825,-23.4983 741.825,-19.9984 741.825,-26.9984"/>
<text text-anchor="middle" x="726.5" y="-27.2983" font-family="Times,serif" font-size="14.00">V:2</text>
</g>
<!-- 9 -->
<g id="node10" class="node"><title>9</title>
<ellipse fill="none" stroke="black" cx="873" cy="-23.4983" rx="18" ry="18"/>
<text text-anchor="middle" x="873" y="-19.7983" font-family="Times,serif" font-size="14.00">9</text>
</g>
<!-- 8&#45;&gt;9 -->
<g id="edge9" class="edge"><title>8&#45;&gt;9</title>
<path fill="none" stroke="black" d="M788.133,-23.4983C803.586,-23.4983 826.584,-23.4983 844.591,-23.4983"/>
<polygon fill="black" stroke="black" points="844.783,-26.9984 854.783,-23.4983 844.783,-19.9984 844.783,-26.9984"/>
<text text-anchor="middle" x="821.5" y="-27.2983" font-family="Times,serif" font-size="14.00">DET:3</text>
</g>
<!-- 10 -->
<g id="node11" class="node"><title>10</title>
<ellipse fill="none" stroke="black" cx="965.498" cy="-23.4983" rx="19.4968" ry="19.4968"/>
<ellipse fill="none" stroke="black" cx="965.498" cy="-23.4983" rx="23.4965" ry="23.4965"/>
<text text-anchor="middle" x="965.498" y="-19.7983" font-family="Times,serif" font-size="14.00">10</text>
</g>
<!-- 9&#45;&gt;10 -->
<g id="edge10" class="edge"><title>9&#45;&gt;10</title>
<path fill="none" stroke="black" d="M891.022,-23.4983C902.446,-23.4983 917.868,-23.4983 931.632,-23.4983"/>
<polygon fill="black" stroke="black" points="931.742,-26.9984 941.742,-23.4983 931.742,-19.9984 931.742,-26.9984"/>
<text text-anchor="middle" x="916.5" y="-27.2983" font-family="Times,serif" font-size="14.00">N:4</text>
</g>
<!-- 11 -->
<g id="node12" class="node"><title>11</title>
<ellipse fill="none" stroke="black" cx="1078.49" cy="-23.4983" rx="19.4965" ry="19.4965"/>
<text text-anchor="middle" x="1078.49" y="-19.7983" font-family="Times,serif" font-size="14.00">11</text>
</g>
<!-- 10&#45;&gt;11 -->
<g id="edge11" class="edge"><title>10&#45;&gt;11</title>
<path fill="none" stroke="black" d="M989.228,-23.4983C1006.41,-23.4983 1030.11,-23.4983 1048.63,-23.4983"/>
<polygon fill="black" stroke="black" points="1048.84,-26.9984 1058.84,-23.4983 1048.84,-19.9984 1048.84,-26.9984"/>
<text text-anchor="middle" x="1024" y="-27.2983" font-family="Times,serif" font-size="14.00">AND:1</text>
</g>
<!-- 12 -->
<g id="node13" class="node"><title>12</title>
<ellipse fill="none" stroke="black" cx="1184.49" cy="-23.4983" rx="19.4965" ry="19.4965"/>
<text text-anchor="middle" x="1184.49" y="-19.7983" font-family="Times,serif" font-size="14.00">12</text>
</g>
<!-- 11&#45;&gt;12 -->
<g id="edge12" class="edge"><title>11&#45;&gt;12</title>
<path fill="none" stroke="black" d="M1098.09,-23.4983C1113.81,-23.4983 1136.61,-23.4983 1154.69,-23.4983"/>
<polygon fill="black" stroke="black" points="1154.71,-26.9984 1164.71,-23.4983 1154.71,-19.9984 1154.71,-26.9984"/>
<text text-anchor="middle" x="1131.49" y="-27.2983" font-family="Times,serif" font-size="14.00">DET:3</text>
</g>
<!-- 13 -->
<g id="node14" class="node"><title>13</title>
<ellipse fill="none" stroke="black" cx="1274.49" cy="-23.4983" rx="19.4965" ry="19.4965"/>
<text text-anchor="middle" x="1274.49" y="-19.7983" font-family="Times,serif" font-size="14.00">13</text>
</g>
<!-- 12&#45;&gt;13 -->
<g id="edge13" class="edge"><title>12&#45;&gt;13</title>
<path fill="none" stroke="black" d="M1204.15,-23.4983C1215.94,-23.4983 1231.4,-23.4983 1244.73,-23.4983"/>
<polygon fill="black" stroke="black" points="1244.85,-26.9984 1254.85,-23.4983 1244.85,-19.9984 1244.85,-26.9984"/>
<text text-anchor="middle" x="1229.49" y="-27.2983" font-family="Times,serif" font-size="14.00">N:4</text>
</g>
<!-- 14 -->
<g id="node15" class="node"><title>14</title>
<ellipse fill="none" stroke="black" cx="1364.48" cy="-23.4983" rx="19.4965" ry="19.4965"/>
<text text-anchor="middle" x="1364.48" y="-19.7983" font-family="Times,serif" font-size="14.00">14</text>
</g>
<!-- 13&#45;&gt;14 -->
<g id="edge14" class="edge"><title>13&#45;&gt;14</title>
<path fill="none" stroke="black" d="M1294.15,-23.4983C1305.93,-23.4983 1321.39,-23.4983 1334.73,-23.4983"/>
<polygon fill="black" stroke="black" points="1334.85,-26.9984 1344.85,-23.4983 1334.85,-19.9984 1334.85,-26.9984"/>
<text text-anchor="middle" x="1319.49" y="-27.2983" font-family="Times,serif" font-size="14.00">V:2</text>
</g>
<!-- 15 -->
<g id="node16" class="node"><title>15</title>
<ellipse fill="none" stroke="black" cx="1470.48" cy="-23.4983" rx="19.4965" ry="19.4965"/>
<text text-anchor="middle" x="1470.48" y="-19.7983" font-family="Times,serif" font-size="14.00">15</text>
</g>
<!-- 14&#45;&gt;15 -->
<g id="edge15" class="edge"><title>14&#45;&gt;15</title>
<path fill="none" stroke="black" d="M1384.08,-23.4983C1399.8,-23.4983 1422.6,-23.4983 1440.68,-23.4983"/>
<polygon fill="black" stroke="black" points="1440.7,-26.9984 1450.7,-23.4983 1440.7,-19.9984 1440.7,-26.9984"/>
<text text-anchor="middle" x="1417.48" y="-27.2983" font-family="Times,serif" font-size="14.00">DET:3</text>
</g>
<!-- 16 -->
<g id="node17" class="node"><title>16</title>
<ellipse fill="none" stroke="black" cx="1564.48" cy="-23.4983" rx="19.4968" ry="19.4968"/>
<ellipse fill="none" stroke="black" cx="1564.48" cy="-23.4983" rx="23.4965" ry="23.4965"/>
<text text-anchor="middle" x="1564.48" y="-19.7983" font-family="Times,serif" font-size="14.00">16</text>
</g>
<!-- 15&#45;&gt;16 -->
<g id="edge16" class="edge"><title>15&#45;&gt;16</title>
<path fill="none" stroke="black" d="M1490.1,-23.4983C1501.61,-23.4983 1516.73,-23.4983 1530.25,-23.4983"/>
<polygon fill="black" stroke="black" points="1530.65,-26.9984 1540.65,-23.4983 1530.65,-19.9984 1530.65,-26.9984"/>
<text text-anchor="middle" x="1515.48" y="-27.2983" font-family="Times,serif" font-size="14.00">N:4</text>
</g>
</g>
</svg>
