<?xml version="1.0" encoding="UTF-8" standalone="no"?>
<!DOCTYPE svg PUBLIC "-//W3C//DTD SVG 1.1//EN"
 "http://www.w3.org/Graphics/SVG/1.1/DTD/svg11.dtd">
<!-- Generated by graphviz version 2.38.0 (20140413.2041)
 -->
<!-- Title: FST Pages: 1 -->
<svg width="612pt" height="30pt"
 viewBox="0.00 0.00 612.00 30.43" xmlns="http://www.w3.org/2000/svg" xmlns:xlink="http://www.w3.org/1999/xlink">
<g id="graph0" class="graph" transform="scale(0.553349 0.553349) rotate(0) translate(4 50.9965)">
<title>FST</title>
<polygon fill="white" stroke="none" points="-4,4 -4,-50.9965 1101.99,-50.9965 1101.99,4 -4,4"/>
<!-- 0 -->
<g id="node1" class="node"><title>0</title>
<ellipse fill="none" stroke="black" stroke-width="2" cx="18" cy="-23.4983" rx="18" ry="18"/>
<text text-anchor="middle" x="18" y="-19.7983" font-family="Times,serif" font-size="14.00">0</text>
</g>
<!-- 1 -->
<g id="node2" class="node"><title>1</title>
<ellipse fill="none" stroke="black" cx="121" cy="-23.4983" rx="18" ry="18"/>
<text text-anchor="middle" x="121" y="-19.7983" font-family="Times,serif" font-size="14.00">1</text>
</g>
<!-- 0&#45;&gt;1 -->
<g id="edge1" class="edge"><title>0&#45;&gt;1</title>
<path fill="none" stroke="black" d="M36.1333,-23.4983C51.5863,-23.4983 74.5842,-23.4983 92.5907,-23.4983"/>
<polygon fill="black" stroke="black" points="92.7827,-26.9984 102.783,-23.4983 92.7826,-19.9984 92.7827,-26.9984"/>
<text text-anchor="middle" x="69.5" y="-27.2983" font-family="Times,serif" font-size="14.00">DET:3</text>
</g>
<!-- 2 -->
<g id="node3" class="node"><title>2</title>
<ellipse fill="none" stroke="black" cx="208" cy="-23.4983" rx="18" ry="18"/>
<text text-anchor="middle" x="208" y="-19.7983" font-family="Times,serif" font-size="14.00">2</text>
</g>
<!-- 1&#45;&gt;2 -->
<g id="edge2" class="edge"><title>1&#45;&gt;2</title>
<path fill="none" stroke="black" d="M139.201,-23.4983C150.837,-23.4983 166.452,-23.4983 179.763,-23.4983"/>
<polygon fill="black" stroke="black" points="179.825,-26.9984 189.825,-23.4983 179.825,-19.9984 179.825,-26.9984"/>
<text text-anchor="middle" x="164.5" y="-27.2983" font-family="Times,serif" font-size="14.00">N:4</text>
</g>
<!-- 3 -->
<g id="node4" class="node"><title>3</title>
<ellipse fill="none" stroke="black" cx="295" cy="-23.4983" rx="18" ry="18"/>
<text text-anchor="middle" x="295" y="-19.7983" font-family="Times,serif" font-size="14.00">3</text>
</g>
<!-- 2&#45;&gt;3 -->
<g id="edge3" class="edge"><title>2&#45;&gt;3</title>
<path fill="none" stroke="black" d="M226.201,-23.4983C237.837,-23.4983 253.452,-23.4983 266.763,-23.4983"/>
<polygon fill="black" stroke="black" points="266.825,-26.9984 276.825,-23.4983 266.825,-19.9984 266.825,-26.9984"/>
<text text-anchor="middle" x="251.5" y="-27.2983" font-family="Times,serif" font-size="14.00">V:2</text>
</g>
<!-- 4 -->
<g id="node5" class="node"><title>4</title>
<ellipse fill="none" stroke="black" cx="398" cy="-23.4983" rx="18" ry="18"/>
<text text-anchor="middle" x="398" y="-19.7983" font-family="Times,serif" font-size="14.00">4</text>
</g>
<!-- 3&#45;&gt;4 -->
<g id="edge4" class="edge"><title>3&#45;&gt;4</title>
<path fill="none" stroke="black" d="M313.133,-23.4983C328.586,-23.4983 351.584,-23.4983 369.591,-23.4983"/>
<polygon fill="black" stroke="black" points="369.783,-26.9984 379.783,-23.4983 369.783,-19.9984 369.783,-26.9984"/>
<text text-anchor="middle" x="346.5" y="-27.2983" font-family="Times,serif" font-size="14.00">DET:3</text>
</g>
<!-- 5 -->
<g id="node6" class="node"><title>5</title>
<ellipse fill="none" stroke="black" cx="489" cy="-23.4983" rx="18" ry="18"/>
<ellipse fill="none" stroke="black" cx="489" cy="-23.4983" rx="22" ry="22"/>
<text text-anchor="middle" x="489" y="-19.7983" font-family="Times,serif" font-size="14.00">5</text>
</g>
<!-- 4&#45;&gt;5 -->
<g id="edge5" class="edge"><title>4&#45;&gt;5</title>
<path fill="none" stroke="black" d="M416.16,-23.4983C427.559,-23.4983 442.866,-23.4983 456.422,-23.4983"/>
<polygon fill="black" stroke="black" points="456.81,-26.9984 466.809,-23.4983 456.809,-19.9984 456.81,-26.9984"/>
<text text-anchor="middle" x="441.5" y="-27.2983" font-family="Times,serif" font-size="14.00">N:4</text>
</g>
<!-- 6 -->
<g id="node7" class="node"><title>6</title>
<ellipse fill="none" stroke="black" cx="599" cy="-23.4983" rx="18" ry="18"/>
<text text-anchor="middle" x="599" y="-19.7983" font-family="Times,serif" font-size="14.00">6</text>
</g>
<!-- 5&#45;&gt;6 -->
<g id="edge6" class="edge"><title>5&#45;&gt;6</title>
<path fill="none" stroke="black" d="M511.08,-23.4983C528.117,-23.4983 552.223,-23.4983 570.728,-23.4983"/>
<polygon fill="black" stroke="black" points="570.882,-26.9984 580.881,-23.4983 570.881,-19.9984 570.882,-26.9984"/>
<text text-anchor="middle" x="546" y="-27.2983" font-family="Times,serif" font-size="14.00">AND:1</text>
</g>
<!-- 7 -->
<g id="node8" class="node"><title>7</title>
<ellipse fill="none" stroke="black" cx="702" cy="-23.4983" rx="18" ry="18"/>
<text text-anchor="middle" x="702" y="-19.7983" font-family="Times,serif" font-size="14.00">7</text>
</g>
<!-- 6&#45;&gt;7 -->
<g id="edge7" class="edge"><title>6&#45;&gt;7</title>
<path fill="none" stroke="black" d="M617.133,-23.4983C632.586,-23.4983 655.584,-23.4983 673.591,-23.4983"/>
<polygon fill="black" stroke="black" points="673.783,-26.9984 683.783,-23.4983 673.783,-19.9984 673.783,-26.9984"/>
<text text-anchor="middle" x="650.5" y="-27.2983" font-family="Times,serif" font-size="14.00">DET:3</text>
</g>
<!-- 8 -->
<g id="node9" class="node"><title>8</title>
<ellipse fill="none" stroke="black" cx="789" cy="-23.4983" rx="18" ry="18"/>
<text text-anchor="middle" x="789" y="-19.7983" font-family="Times,serif" font-size="14.00">8</text>
</g>
<!-- 7&#45;&gt;8 -->
<g id="edge8" class="edge"><title>7&#45;&gt;8</title>
<path fill="none" stroke="black" d="M720.201,-23.4983C731.837,-23.4983 747.452,-23.4983 760.763,-23.4983"/>
<polygon fill="black" stroke="black" points="760.825,-26.9984 770.825,-23.4983 760.825,-19.9984 760.825,-26.9984"/>
<text text-anchor="middle" x="745.5" y="-27.2983" font-family="Times,serif" font-size="14.00">N:4</text>
</g>
<!-- 9 -->
<g id="node10" class="node"><title>9</title>
<ellipse fill="none" stroke="black" cx="876" cy="-23.4983" rx="18" ry="18"/>
<text text-anchor="middle" x="876" y="-19.7983" font-family="Times,serif" font-size="14.00">9</text>
</g>
<!-- 8&#45;&gt;9 -->
<g id="edge9" class="edge"><title>8&#45;&gt;9</title>
<path fill="none" stroke="black" d="M807.201,-23.4983C818.837,-23.4983 834.452,-23.4983 847.763,-23.4983"/>
<polygon fill="black" stroke="black" points="847.825,-26.9984 857.825,-23.4983 847.825,-19.9984 847.825,-26.9984"/>
<text text-anchor="middle" x="832.5" y="-27.2983" font-family="Times,serif" font-size="14.00">V:2</text>
</g>
<!-- 10 -->
<g id="node11" class="node"><title>10</title>
<ellipse fill="none" stroke="black" cx="980.498" cy="-23.4983" rx="19.4965" ry="19.4965"/>
<text text-anchor="middle" x="980.498" y="-19.7983" font-family="Times,serif" font-size="14.00">10</text>
</g>
<!-- 9&#45;&gt;10 -->
<g id="edge10" class="edge"><title>9&#45;&gt;10</title>
<path fill="none" stroke="black" d="M894.387,-23.4983C909.857,-23.4983 932.777,-23.4983 950.936,-23.4983"/>
<polygon fill="black" stroke="black" points="950.985,-26.9984 960.985,-23.4983 950.985,-19.9984 950.985,-26.9984"/>
<text text-anchor="middle" x="927.5" y="-27.2983" font-family="Times,serif" font-size="14.00">DET:3</text>
</g>
<!-- 11 -->
<g id="node12" class="node"><title>11</title>
<ellipse fill="none" stroke="black" cx="1074.49" cy="-23.4983" rx="19.4968" ry="19.4968"/>
<ellipse fill="none" stroke="black" cx="1074.49" cy="-23.4983" rx="23.4965" ry="23.4965"/>
<text text-anchor="middle" x="1074.49" y="-19.7983" font-family="Times,serif" font-size="14.00">11</text>
</g>
<!-- 10&#45;&gt;11 -->
<g id="edge11" class="edge"><title>10&#45;&gt;11</title>
<path fill="none" stroke="black" d="M1000.12,-23.4983C1011.63,-23.4983 1026.75,-23.4983 1040.27,-23.4983"/>
<polygon fill="black" stroke="black" points="1040.67,-26.9984 1050.67,-23.4983 1040.67,-19.9984 1040.67,-26.9984"/>
<text text-anchor="middle" x="1025.5" y="-27.2983" font-family="Times,serif" font-size="14.00">N:4</text>
</g>
</g>
</svg>
