<?xml version="1.0" encoding="UTF-8" standalone="no"?>
<!DOCTYPE svg PUBLIC "-//W3C//DTD SVG 1.1//EN"
 "http://www.w3.org/Graphics/SVG/1.1/DTD/svg11.dtd">
<!-- Generated by graphviz version 2.38.0 (20140413.2041)
 -->
<!-- Title: FST Pages: 1 -->
<svg width="612pt" height="21pt"
 viewBox="0.00 0.00 612.00 21.30" xmlns="http://www.w3.org/2000/svg" xmlns:xlink="http://www.w3.org/1999/xlink">
<g id="graph0" class="graph" transform="scale(0.387348 0.387348) rotate(0) translate(4 50.9965)">
<title>FST</title>
<polygon fill="white" stroke="none" points="-4,4 -4,-50.9965 1575.98,-50.9965 1575.98,4 -4,4"/>
<!-- 0 -->
<g id="node1" class="node"><title>0</title>
<ellipse fill="none" stroke="black" stroke-width="2" cx="18" cy="-23.4983" rx="18" ry="18"/>
<text text-anchor="middle" x="18" y="-19.7983" font-family="Times,serif" font-size="14.00">0</text>
</g>
<!-- 1 -->
<g id="node2" class="node"><title>1</title>
<ellipse fill="none" stroke="black" cx="121" cy="-23.4983" rx="18" ry="18"/>
<text text-anchor="middle" x="121" y="-19.7983" font-family="Times,serif" font-size="14.00">1</text>
</g>
<!-- 0&#45;&gt;1 -->
<g id="edge1" class="edge"><title>0&#45;&gt;1</title>
<path fill="none" stroke="black" d="M36.1333,-23.4983C51.5863,-23.4983 74.5842,-23.4983 92.5907,-23.4983"/>
<polygon fill="black" stroke="black" points="92.7827,-26.9984 102.783,-23.4983 92.7826,-19.9984 92.7827,-26.9984"/>
<text text-anchor="middle" x="69.5" y="-27.2983" font-family="Times,serif" font-size="14.00">DET:3</text>
</g>
<!-- 2 -->
<g id="node3" class="node"><title>2</title>
<ellipse fill="none" stroke="black" cx="208" cy="-23.4983" rx="18" ry="18"/>
<text text-anchor="middle" x="208" y="-19.7983" font-family="Times,serif" font-size="14.00">2</text>
</g>
<!-- 1&#45;&gt;2 -->
<g id="edge2" class="edge"><title>1&#45;&gt;2</title>
<path fill="none" stroke="black" d="M139.201,-23.4983C150.837,-23.4983 166.452,-23.4983 179.763,-23.4983"/>
<polygon fill="black" stroke="black" points="179.825,-26.9984 189.825,-23.4983 179.825,-19.9984 179.825,-26.9984"/>
<text text-anchor="middle" x="164.5" y="-27.2983" font-family="Times,serif" font-size="14.00">N:4</text>
</g>
<!-- 3 -->
<g id="node4" class="node"><title>3</title>
<ellipse fill="none" stroke="black" cx="295" cy="-23.4983" rx="18" ry="18"/>
<text text-anchor="middle" x="295" y="-19.7983" font-family="Times,serif" font-size="14.00">3</text>
</g>
<!-- 2&#45;&gt;3 -->
<g id="edge3" class="edge"><title>2&#45;&gt;3</title>
<path fill="none" stroke="black" d="M226.201,-23.4983C237.837,-23.4983 253.452,-23.4983 266.763,-23.4983"/>
<polygon fill="black" stroke="black" points="266.825,-26.9984 276.825,-23.4983 266.825,-19.9984 266.825,-26.9984"/>
<text text-anchor="middle" x="251.5" y="-27.2983" font-family="Times,serif" font-size="14.00">V:2</text>
</g>
<!-- 4 -->
<g id="node5" class="node"><title>4</title>
<ellipse fill="none" stroke="black" cx="398" cy="-23.4983" rx="18" ry="18"/>
<text text-anchor="middle" x="398" y="-19.7983" font-family="Times,serif" font-size="14.00">4</text>
</g>
<!-- 3&#45;&gt;4 -->
<g id="edge4" class="edge"><title>3&#45;&gt;4</title>
<path fill="none" stroke="black" d="M313.133,-23.4983C328.586,-23.4983 351.584,-23.4983 369.591,-23.4983"/>
<polygon fill="black" stroke="black" points="369.783,-26.9984 379.783,-23.4983 369.783,-19.9984 369.783,-26.9984"/>
<text text-anchor="middle" x="346.5" y="-27.2983" font-family="Times,serif" font-size="14.00">DET:3</text>
</g>
<!-- 5 -->
<g id="node6" class="node"><title>5</title>
<ellipse fill="none" stroke="black" cx="485" cy="-23.4983" rx="18" ry="18"/>
<text text-anchor="middle" x="485" y="-19.7983" font-family="Times,serif" font-size="14.00">5</text>
</g>
<!-- 4&#45;&gt;5 -->
<g id="edge5" class="edge"><title>4&#45;&gt;5</title>
<path fill="none" stroke="black" d="M416.201,-23.4983C427.837,-23.4983 443.452,-23.4983 456.763,-23.4983"/>
<polygon fill="black" stroke="black" points="456.825,-26.9984 466.825,-23.4983 456.825,-19.9984 456.825,-26.9984"/>
<text text-anchor="middle" x="441.5" y="-27.2983" font-family="Times,serif" font-size="14.00">N:4</text>
</g>
<!-- 6 -->
<g id="node7" class="node"><title>6</title>
<ellipse fill="none" stroke="black" cx="588" cy="-23.4983" rx="18" ry="18"/>
<text text-anchor="middle" x="588" y="-19.7983" font-family="Times,serif" font-size="14.00">6</text>
</g>
<!-- 5&#45;&gt;6 -->
<g id="edge6" class="edge"><title>5&#45;&gt;6</title>
<path fill="none" stroke="black" d="M503.133,-23.4983C518.586,-23.4983 541.584,-23.4983 559.591,-23.4983"/>
<polygon fill="black" stroke="black" points="559.783,-26.9984 569.783,-23.4983 559.783,-19.9984 559.783,-26.9984"/>
<text text-anchor="middle" x="536.5" y="-27.2983" font-family="Times,serif" font-size="14.00">DET:3</text>
</g>
<!-- 7 -->
<g id="node8" class="node"><title>7</title>
<ellipse fill="none" stroke="black" cx="675" cy="-23.4983" rx="18" ry="18"/>
<text text-anchor="middle" x="675" y="-19.7983" font-family="Times,serif" font-size="14.00">7</text>
</g>
<!-- 6&#45;&gt;7 -->
<g id="edge7" class="edge"><title>6&#45;&gt;7</title>
<path fill="none" stroke="black" d="M606.201,-23.4983C617.837,-23.4983 633.452,-23.4983 646.763,-23.4983"/>
<polygon fill="black" stroke="black" points="646.825,-26.9984 656.825,-23.4983 646.825,-19.9984 646.825,-26.9984"/>
<text text-anchor="middle" x="631.5" y="-27.2983" font-family="Times,serif" font-size="14.00">N:4</text>
</g>
<!-- 8 -->
<g id="node9" class="node"><title>8</title>
<ellipse fill="none" stroke="black" cx="762" cy="-23.4983" rx="18" ry="18"/>
<text text-anchor="middle" x="762" y="-19.7983" font-family="Times,serif" font-size="14.00">8</text>
</g>
<!-- 7&#45;&gt;8 -->
<g id="edge8" class="edge"><title>7&#45;&gt;8</title>
<path fill="none" stroke="black" d="M693.201,-23.4983C704.837,-23.4983 720.452,-23.4983 733.763,-23.4983"/>
<polygon fill="black" stroke="black" points="733.825,-26.9984 743.825,-23.4983 733.825,-19.9984 733.825,-26.9984"/>
<text text-anchor="middle" x="718.5" y="-27.2983" font-family="Times,serif" font-size="14.00">V:2</text>
</g>
<!-- 9 -->
<g id="node10" class="node"><title>9</title>
<ellipse fill="none" stroke="black" cx="865" cy="-23.4983" rx="18" ry="18"/>
<text text-anchor="middle" x="865" y="-19.7983" font-family="Times,serif" font-size="14.00">9</text>
</g>
<!-- 8&#45;&gt;9 -->
<g id="edge9" class="edge"><title>8&#45;&gt;9</title>
<path fill="none" stroke="black" d="M780.133,-23.4983C795.586,-23.4983 818.584,-23.4983 836.591,-23.4983"/>
<polygon fill="black" stroke="black" points="836.783,-26.9984 846.783,-23.4983 836.783,-19.9984 836.783,-26.9984"/>
<text text-anchor="middle" x="813.5" y="-27.2983" font-family="Times,serif" font-size="14.00">DET:3</text>
</g>
<!-- 10 -->
<g id="node11" class="node"><title>10</title>
<ellipse fill="none" stroke="black" cx="953.498" cy="-23.4983" rx="19.4965" ry="19.4965"/>
<text text-anchor="middle" x="953.498" y="-19.7983" font-family="Times,serif" font-size="14.00">10</text>
</g>
<!-- 9&#45;&gt;10 -->
<g id="edge10" class="edge"><title>9&#45;&gt;10</title>
<path fill="none" stroke="black" d="M883.089,-23.4983C894.666,-23.4983 910.249,-23.4983 923.717,-23.4983"/>
<polygon fill="black" stroke="black" points="923.947,-26.9984 933.947,-23.4983 923.947,-19.9984 923.947,-26.9984"/>
<text text-anchor="middle" x="908.5" y="-27.2983" font-family="Times,serif" font-size="14.00">N:4</text>
</g>
<!-- 11 -->
<g id="node12" class="node"><title>11</title>
<ellipse fill="none" stroke="black" cx="1062.49" cy="-23.4983" rx="19.4965" ry="19.4965"/>
<text text-anchor="middle" x="1062.49" y="-19.7983" font-family="Times,serif" font-size="14.00">11</text>
</g>
<!-- 10&#45;&gt;11 -->
<g id="edge11" class="edge"><title>10&#45;&gt;11</title>
<path fill="none" stroke="black" d="M973.136,-23.4983C989.528,-23.4983 1013.66,-23.4983 1032.56,-23.4983"/>
<polygon fill="black" stroke="black" points="1032.71,-26.9984 1042.71,-23.4983 1032.71,-19.9984 1032.71,-26.9984"/>
<text text-anchor="middle" x="1008" y="-27.2983" font-family="Times,serif" font-size="14.00">AND:1</text>
</g>
<!-- 12 -->
<g id="node13" class="node"><title>12</title>
<ellipse fill="none" stroke="black" cx="1168.49" cy="-23.4983" rx="19.4965" ry="19.4965"/>
<text text-anchor="middle" x="1168.49" y="-19.7983" font-family="Times,serif" font-size="14.00">12</text>
</g>
<!-- 11&#45;&gt;12 -->
<g id="edge12" class="edge"><title>11&#45;&gt;12</title>
<path fill="none" stroke="black" d="M1082.09,-23.4983C1097.81,-23.4983 1120.61,-23.4983 1138.69,-23.4983"/>
<polygon fill="black" stroke="black" points="1138.71,-26.9984 1148.71,-23.4983 1138.71,-19.9984 1138.71,-26.9984"/>
<text text-anchor="middle" x="1115.49" y="-27.2983" font-family="Times,serif" font-size="14.00">DET:3</text>
</g>
<!-- 13 -->
<g id="node14" class="node"><title>13</title>
<ellipse fill="none" stroke="black" cx="1258.49" cy="-23.4983" rx="19.4965" ry="19.4965"/>
<text text-anchor="middle" x="1258.49" y="-19.7983" font-family="Times,serif" font-size="14.00">13</text>
</g>
<!-- 12&#45;&gt;13 -->
<g id="edge13" class="edge"><title>12&#45;&gt;13</title>
<path fill="none" stroke="black" d="M1188.15,-23.4983C1199.94,-23.4983 1215.4,-23.4983 1228.73,-23.4983"/>
<polygon fill="black" stroke="black" points="1228.85,-26.9984 1238.85,-23.4983 1228.85,-19.9984 1228.85,-26.9984"/>
<text text-anchor="middle" x="1213.49" y="-27.2983" font-family="Times,serif" font-size="14.00">N:4</text>
</g>
<!-- 14 -->
<g id="node15" class="node"><title>14</title>
<ellipse fill="none" stroke="black" cx="1348.48" cy="-23.4983" rx="19.4965" ry="19.4965"/>
<text text-anchor="middle" x="1348.48" y="-19.7983" font-family="Times,serif" font-size="14.00">14</text>
</g>
<!-- 13&#45;&gt;14 -->
<g id="edge14" class="edge"><title>13&#45;&gt;14</title>
<path fill="none" stroke="black" d="M1278.15,-23.4983C1289.93,-23.4983 1305.39,-23.4983 1318.73,-23.4983"/>
<polygon fill="black" stroke="black" points="1318.85,-26.9984 1328.85,-23.4983 1318.85,-19.9984 1318.85,-26.9984"/>
<text text-anchor="middle" x="1303.49" y="-27.2983" font-family="Times,serif" font-size="14.00">V:2</text>
</g>
<!-- 15 -->
<g id="node16" class="node"><title>15</title>
<ellipse fill="none" stroke="black" cx="1454.48" cy="-23.4983" rx="19.4965" ry="19.4965"/>
<text text-anchor="middle" x="1454.48" y="-19.7983" font-family="Times,serif" font-size="14.00">15</text>
</g>
<!-- 14&#45;&gt;15 -->
<g id="edge15" class="edge"><title>14&#45;&gt;15</title>
<path fill="none" stroke="black" d="M1368.08,-23.4983C1383.8,-23.4983 1406.6,-23.4983 1424.68,-23.4983"/>
<polygon fill="black" stroke="black" points="1424.7,-26.9984 1434.7,-23.4983 1424.7,-19.9984 1424.7,-26.9984"/>
<text text-anchor="middle" x="1401.48" y="-27.2983" font-family="Times,serif" font-size="14.00">DET:3</text>
</g>
<!-- 16 -->
<g id="node17" class="node"><title>16</title>
<ellipse fill="none" stroke="black" cx="1548.48" cy="-23.4983" rx="19.4968" ry="19.4968"/>
<ellipse fill="none" stroke="black" cx="1548.48" cy="-23.4983" rx="23.4965" ry="23.4965"/>
<text text-anchor="middle" x="1548.48" y="-19.7983" font-family="Times,serif" font-size="14.00">16</text>
</g>
<!-- 15&#45;&gt;16 -->
<g id="edge16" class="edge"><title>15&#45;&gt;16</title>
<path fill="none" stroke="black" d="M1474.1,-23.4983C1485.61,-23.4983 1500.73,-23.4983 1514.25,-23.4983"/>
<polygon fill="black" stroke="black" points="1514.65,-26.9984 1524.65,-23.4983 1514.65,-19.9984 1514.65,-26.9984"/>
<text text-anchor="middle" x="1499.48" y="-27.2983" font-family="Times,serif" font-size="14.00">N:4</text>
</g>
</g>
</svg>
