<?xml version="1.0" encoding="UTF-8" standalone="no"?>
<!DOCTYPE svg PUBLIC "-//W3C//DTD SVG 1.1//EN"
 "http://www.w3.org/Graphics/SVG/1.1/DTD/svg11.dtd">
<!-- Generated by graphviz version 2.38.0 (20140413.2041)
 -->
<!-- Title: FST Pages: 1 -->
<svg width="612pt" height="33pt"
 viewBox="0.00 0.00 612.00 33.20" xmlns="http://www.w3.org/2000/svg" xmlns:xlink="http://www.w3.org/1999/xlink">
<g id="graph0" class="graph" transform="scale(0.458429 0.458429) rotate(0) translate(4 68.426)">
<title>FST</title>
<polygon fill="white" stroke="none" points="-4,4 -4,-68.426 1330.99,-68.426 1330.99,4 -4,4"/>
<!-- 0 -->
<g id="node1" class="node"><title>0</title>
<ellipse fill="none" stroke="black" stroke-width="2" cx="18" cy="-30.426" rx="18" ry="18"/>
<text text-anchor="middle" x="18" y="-26.726" font-family="Times,serif" font-size="14.00">0</text>
</g>
<!-- 1 -->
<g id="node2" class="node"><title>1</title>
<ellipse fill="none" stroke="black" cx="131" cy="-30.426" rx="18" ry="18"/>
<text text-anchor="middle" x="131" y="-26.726" font-family="Times,serif" font-size="14.00">1</text>
</g>
<!-- 0&#45;&gt;1 -->
<g id="edge1" class="edge"><title>0&#45;&gt;1</title>
<path fill="none" stroke="black" d="M36.3438,-30.426C54.1015,-30.426 81.9602,-30.426 102.683,-30.426"/>
<polygon fill="black" stroke="black" points="102.778,-33.9261 112.778,-30.426 102.778,-26.9261 102.778,-33.9261"/>
<text text-anchor="middle" x="74.5" y="-34.226" font-family="Times,serif" font-size="14.00">DET:the</text>
</g>
<!-- 0&#45;&gt;1 -->
<g id="edge2" class="edge"><title>0&#45;&gt;1</title>
<path fill="none" stroke="black" d="M32.9086,-19.9652C38.2739,-16.5411 44.6448,-13.1705 51,-11.426 71.1437,-5.89641 77.8563,-5.89641 98,-11.426 101.078,-12.271 104.16,-13.4975 107.13,-14.9268"/>
<polygon fill="black" stroke="black" points="105.659,-18.1152 116.091,-19.9652 109.09,-12.0135 105.659,-18.1152"/>
<text text-anchor="middle" x="74.5" y="-15.226" font-family="Times,serif" font-size="14.00">DET:a</text>
</g>
<!-- 2 -->
<g id="node3" class="node"><title>2</title>
<ellipse fill="none" stroke="black" cx="247" cy="-30.426" rx="18" ry="18"/>
<text text-anchor="middle" x="247" y="-26.726" font-family="Times,serif" font-size="14.00">2</text>
</g>
<!-- 1&#45;&gt;2 -->
<g id="edge3" class="edge"><title>1&#45;&gt;2</title>
<path fill="none" stroke="black" d="M146.752,-39.5888C151.998,-42.3549 158.076,-45.0274 164,-46.426 185.628,-51.5316 192.372,-51.5316 214,-46.426 216.684,-45.7923 219.4,-44.897 222.056,-43.8499"/>
<polygon fill="black" stroke="black" points="223.648,-46.9701 231.248,-39.5888 220.703,-40.6193 223.648,-46.9701"/>
<text text-anchor="middle" x="189" y="-53.226" font-family="Times,serif" font-size="14.00">N:cat</text>
</g>
<!-- 1&#45;&gt;2 -->
<g id="edge4" class="edge"><title>1&#45;&gt;2</title>
<path fill="none" stroke="black" d="M148.903,-27.9145C153.765,-27.3004 159.083,-26.7321 164,-26.426 186.179,-25.0451 191.821,-25.0451 214,-26.426 215.537,-26.5216 217.112,-26.6429 218.701,-26.7832"/>
<polygon fill="black" stroke="black" points="218.777,-30.312 229.097,-27.9145 219.535,-23.3531 218.777,-30.312"/>
<text text-anchor="middle" x="189" y="-30.226" font-family="Times,serif" font-size="14.00">N:dog</text>
</g>
<!-- 1&#45;&gt;2 -->
<g id="edge5" class="edge"><title>1&#45;&gt;2</title>
<path fill="none" stroke="black" d="M144.198,-17.7701C149.728,-12.9215 156.667,-7.95065 164,-5.42596 185.012,1.80865 192.988,1.80865 214,-5.42596 218.125,-6.8461 222.125,-9.04021 225.82,-11.5512"/>
<polygon fill="black" stroke="black" points="223.762,-14.3853 233.802,-17.7701 228.065,-8.86332 223.762,-14.3853"/>
<text text-anchor="middle" x="189" y="-9.22596" font-family="Times,serif" font-size="14.00">N:mouse</text>
</g>
<!-- 3 -->
<g id="node4" class="node"><title>3</title>
<ellipse fill="none" stroke="black" cx="364" cy="-30.426" rx="18" ry="18"/>
<text text-anchor="middle" x="364" y="-26.726" font-family="Times,serif" font-size="14.00">3</text>
</g>
<!-- 2&#45;&gt;3 -->
<g id="edge6" class="edge"><title>2&#45;&gt;3</title>
<path fill="none" stroke="black" d="M265.466,-30.426C284.064,-30.426 313.756,-30.426 335.499,-30.426"/>
<polygon fill="black" stroke="black" points="335.746,-33.9261 345.746,-30.426 335.746,-26.9261 335.746,-33.9261"/>
<text text-anchor="middle" x="305.5" y="-34.226" font-family="Times,serif" font-size="14.00">V:chased</text>
</g>
<!-- 2&#45;&gt;3 -->
<g id="edge7" class="edge"><title>2&#45;&gt;3</title>
<path fill="none" stroke="black" d="M261.909,-19.9652C267.274,-16.5411 273.645,-13.1705 280,-11.426 301.858,-5.42581 309.142,-5.42581 331,-11.426 334.078,-12.271 337.16,-13.4975 340.13,-14.9268"/>
<polygon fill="black" stroke="black" points="338.659,-18.1152 349.091,-19.9652 342.09,-12.0135 338.659,-18.1152"/>
<text text-anchor="middle" x="305.5" y="-15.226" font-family="Times,serif" font-size="14.00">V:bit</text>
</g>
<!-- 4 -->
<g id="node5" class="node"><title>4</title>
<ellipse fill="none" stroke="black" cx="477" cy="-30.426" rx="18" ry="18"/>
<text text-anchor="middle" x="477" y="-26.726" font-family="Times,serif" font-size="14.00">4</text>
</g>
<!-- 3&#45;&gt;4 -->
<g id="edge8" class="edge"><title>3&#45;&gt;4</title>
<path fill="none" stroke="black" d="M382.344,-30.426C400.102,-30.426 427.96,-30.426 448.683,-30.426"/>
<polygon fill="black" stroke="black" points="448.778,-33.9261 458.778,-30.426 448.778,-26.9261 448.778,-33.9261"/>
<text text-anchor="middle" x="420.5" y="-34.226" font-family="Times,serif" font-size="14.00">DET:the</text>
</g>
<!-- 3&#45;&gt;4 -->
<g id="edge9" class="edge"><title>3&#45;&gt;4</title>
<path fill="none" stroke="black" d="M378.909,-19.9652C384.274,-16.5411 390.645,-13.1705 397,-11.426 417.144,-5.89641 423.856,-5.89641 444,-11.426 447.078,-12.271 450.16,-13.4975 453.13,-14.9268"/>
<polygon fill="black" stroke="black" points="451.659,-18.1152 462.091,-19.9652 455.09,-12.0135 451.659,-18.1152"/>
<text text-anchor="middle" x="420.5" y="-15.226" font-family="Times,serif" font-size="14.00">DET:a</text>
</g>
<!-- 5 -->
<g id="node6" class="node"><title>5</title>
<ellipse fill="none" stroke="black" cx="597" cy="-30.426" rx="18" ry="18"/>
<ellipse fill="none" stroke="black" cx="597" cy="-30.426" rx="22" ry="22"/>
<text text-anchor="middle" x="597" y="-26.726" font-family="Times,serif" font-size="14.00">5</text>
</g>
<!-- 4&#45;&gt;5 -->
<g id="edge10" class="edge"><title>4&#45;&gt;5</title>
<path fill="none" stroke="black" d="M492.752,-39.5888C497.998,-42.3549 504.076,-45.0274 510,-46.426 531.628,-51.5316 538.262,-51.0391 560,-46.426 562.517,-45.8918 565.072,-45.169 567.599,-44.3246"/>
<polygon fill="black" stroke="black" points="569.041,-47.5188 577.071,-40.6068 566.483,-41.0028 569.041,-47.5188"/>
<text text-anchor="middle" x="535" y="-53.226" font-family="Times,serif" font-size="14.00">N:cat</text>
</g>
<!-- 4&#45;&gt;5 -->
<g id="edge11" class="edge"><title>4&#45;&gt;5</title>
<path fill="none" stroke="black" d="M494.919,-28.5421C499.781,-28.0816 505.095,-27.6554 510,-27.426 532.198,-26.3877 537.797,-26.5024 560,-27.426 561.527,-27.4895 563.09,-27.5681 564.668,-27.6584"/>
<polygon fill="black" stroke="black" points="564.859,-31.1802 575.079,-28.3866 565.347,-24.1973 564.859,-31.1802"/>
<text text-anchor="middle" x="535" y="-31.226" font-family="Times,serif" font-size="14.00">N:dog</text>
</g>
<!-- 4&#45;&gt;5 -->
<g id="edge12" class="edge"><title>4&#45;&gt;5</title>
<path fill="none" stroke="black" d="M490.667,-18.524C496.173,-14.1388 502.967,-9.6913 510,-7.42596 531.152,-0.613036 538.67,-1.19375 560,-7.42596 563.631,-8.48676 567.244,-10.0377 570.702,-11.8415"/>
<polygon fill="black" stroke="black" points="569.021,-14.9144 579.4,-17.0433 572.614,-8.90676 569.021,-14.9144"/>
<text text-anchor="middle" x="535" y="-11.226" font-family="Times,serif" font-size="14.00">N:mouse</text>
</g>
<!-- 6 -->
<g id="node7" class="node"><title>6</title>
<ellipse fill="none" stroke="black" cx="720" cy="-30.426" rx="18" ry="18"/>
<text text-anchor="middle" x="720" y="-26.726" font-family="Times,serif" font-size="14.00">6</text>
</g>
<!-- 5&#45;&gt;6 -->
<g id="edge13" class="edge"><title>5&#45;&gt;6</title>
<path fill="none" stroke="black" d="M619.077,-30.426C639.21,-30.426 669.659,-30.426 691.653,-30.426"/>
<polygon fill="black" stroke="black" points="691.688,-33.9261 701.688,-30.426 691.688,-26.9261 691.688,-33.9261"/>
<text text-anchor="middle" x="660.5" y="-34.226" font-family="Times,serif" font-size="14.00">AND:and</text>
</g>
<!-- 7 -->
<g id="node8" class="node"><title>7</title>
<ellipse fill="none" stroke="black" cx="833" cy="-30.426" rx="18" ry="18"/>
<text text-anchor="middle" x="833" y="-26.726" font-family="Times,serif" font-size="14.00">7</text>
</g>
<!-- 6&#45;&gt;7 -->
<g id="edge14" class="edge"><title>6&#45;&gt;7</title>
<path fill="none" stroke="black" d="M738.344,-30.426C756.102,-30.426 783.96,-30.426 804.683,-30.426"/>
<polygon fill="black" stroke="black" points="804.778,-33.9261 814.778,-30.426 804.778,-26.9261 804.778,-33.9261"/>
<text text-anchor="middle" x="776.5" y="-34.226" font-family="Times,serif" font-size="14.00">DET:the</text>
</g>
<!-- 6&#45;&gt;7 -->
<g id="edge15" class="edge"><title>6&#45;&gt;7</title>
<path fill="none" stroke="black" d="M734.909,-19.9652C740.274,-16.5411 746.645,-13.1705 753,-11.426 773.144,-5.89641 779.856,-5.89641 800,-11.426 803.078,-12.271 806.16,-13.4975 809.13,-14.9268"/>
<polygon fill="black" stroke="black" points="807.659,-18.1152 818.091,-19.9652 811.09,-12.0135 807.659,-18.1152"/>
<text text-anchor="middle" x="776.5" y="-15.226" font-family="Times,serif" font-size="14.00">DET:a</text>
</g>
<!-- 8 -->
<g id="node9" class="node"><title>8</title>
<ellipse fill="none" stroke="black" cx="949" cy="-30.426" rx="18" ry="18"/>
<text text-anchor="middle" x="949" y="-26.726" font-family="Times,serif" font-size="14.00">8</text>
</g>
<!-- 7&#45;&gt;8 -->
<g id="edge16" class="edge"><title>7&#45;&gt;8</title>
<path fill="none" stroke="black" d="M848.752,-39.5888C853.998,-42.3549 860.076,-45.0274 866,-46.426 887.628,-51.5316 894.372,-51.5316 916,-46.426 918.684,-45.7923 921.4,-44.897 924.056,-43.8499"/>
<polygon fill="black" stroke="black" points="925.648,-46.9701 933.248,-39.5888 922.703,-40.6193 925.648,-46.9701"/>
<text text-anchor="middle" x="891" y="-53.226" font-family="Times,serif" font-size="14.00">N:cat</text>
</g>
<!-- 7&#45;&gt;8 -->
<g id="edge17" class="edge"><title>7&#45;&gt;8</title>
<path fill="none" stroke="black" d="M850.903,-27.9145C855.765,-27.3004 861.083,-26.7321 866,-26.426 888.179,-25.0451 893.821,-25.0451 916,-26.426 917.537,-26.5216 919.112,-26.6429 920.701,-26.7832"/>
<polygon fill="black" stroke="black" points="920.777,-30.312 931.097,-27.9145 921.535,-23.3531 920.777,-30.312"/>
<text text-anchor="middle" x="891" y="-30.226" font-family="Times,serif" font-size="14.00">N:dog</text>
</g>
<!-- 7&#45;&gt;8 -->
<g id="edge18" class="edge"><title>7&#45;&gt;8</title>
<path fill="none" stroke="black" d="M846.198,-17.7701C851.728,-12.9215 858.667,-7.95065 866,-5.42596 887.012,1.80865 894.988,1.80865 916,-5.42596 920.125,-6.8461 924.125,-9.04021 927.82,-11.5512"/>
<polygon fill="black" stroke="black" points="925.762,-14.3853 935.802,-17.7701 930.065,-8.86332 925.762,-14.3853"/>
<text text-anchor="middle" x="891" y="-9.22596" font-family="Times,serif" font-size="14.00">N:mouse</text>
</g>
<!-- 9 -->
<g id="node10" class="node"><title>9</title>
<ellipse fill="none" stroke="black" cx="1066" cy="-30.426" rx="18" ry="18"/>
<text text-anchor="middle" x="1066" y="-26.726" font-family="Times,serif" font-size="14.00">9</text>
</g>
<!-- 8&#45;&gt;9 -->
<g id="edge19" class="edge"><title>8&#45;&gt;9</title>
<path fill="none" stroke="black" d="M967.466,-30.426C986.064,-30.426 1015.76,-30.426 1037.5,-30.426"/>
<polygon fill="black" stroke="black" points="1037.75,-33.9261 1047.75,-30.426 1037.75,-26.9261 1037.75,-33.9261"/>
<text text-anchor="middle" x="1007.5" y="-34.226" font-family="Times,serif" font-size="14.00">V:chased</text>
</g>
<!-- 8&#45;&gt;9 -->
<g id="edge20" class="edge"><title>8&#45;&gt;9</title>
<path fill="none" stroke="black" d="M963.909,-19.9652C969.274,-16.5411 975.645,-13.1705 982,-11.426 1003.86,-5.42581 1011.14,-5.42581 1033,-11.426 1036.08,-12.271 1039.16,-13.4975 1042.13,-14.9268"/>
<polygon fill="black" stroke="black" points="1040.66,-18.1152 1051.09,-19.9652 1044.09,-12.0135 1040.66,-18.1152"/>
<text text-anchor="middle" x="1007.5" y="-15.226" font-family="Times,serif" font-size="14.00">V:bit</text>
</g>
<!-- 10 -->
<g id="node11" class="node"><title>10</title>
<ellipse fill="none" stroke="black" cx="1180.5" cy="-30.426" rx="19.4965" ry="19.4965"/>
<text text-anchor="middle" x="1180.5" y="-26.726" font-family="Times,serif" font-size="14.00">10</text>
</g>
<!-- 9&#45;&gt;10 -->
<g id="edge21" class="edge"><title>9&#45;&gt;10</title>
<path fill="none" stroke="black" d="M1084.09,-30.426C1101.75,-30.426 1129.66,-30.426 1150.73,-30.426"/>
<polygon fill="black" stroke="black" points="1150.75,-33.9261 1160.75,-30.426 1150.75,-26.9261 1150.75,-33.9261"/>
<text text-anchor="middle" x="1122.5" y="-34.226" font-family="Times,serif" font-size="14.00">DET:the</text>
</g>
<!-- 9&#45;&gt;10 -->
<g id="edge22" class="edge"><title>9&#45;&gt;10</title>
<path fill="none" stroke="black" d="M1080.91,-19.9652C1086.27,-16.5411 1092.64,-13.1705 1099,-11.426 1119.14,-5.89641 1125.8,-6.09675 1146,-11.426 1149.07,-12.2357 1152.15,-13.3983 1155.14,-14.7553"/>
<polygon fill="black" stroke="black" points="1153.73,-17.9723 1164.21,-19.5576 1157.01,-11.7856 1153.73,-17.9723"/>
<text text-anchor="middle" x="1122.5" y="-15.226" font-family="Times,serif" font-size="14.00">DET:a</text>
</g>
<!-- 11 -->
<g id="node12" class="node"><title>11</title>
<ellipse fill="none" stroke="black" cx="1303.49" cy="-30.426" rx="19.4968" ry="19.4968"/>
<ellipse fill="none" stroke="black" cx="1303.49" cy="-30.426" rx="23.4965" ry="23.4965"/>
<text text-anchor="middle" x="1303.49" y="-26.726" font-family="Times,serif" font-size="14.00">11</text>
</g>
<!-- 10&#45;&gt;11 -->
<g id="edge23" class="edge"><title>10&#45;&gt;11</title>
<path fill="none" stroke="black" d="M1197.67,-39.9303C1203,-42.5745 1209.09,-45.0873 1215,-46.426 1236.67,-51.3362 1243.22,-50.8767 1265,-46.426 1267.64,-45.8864 1270.32,-45.1536 1272.98,-44.2969"/>
<polygon fill="black" stroke="black" points="1274.22,-47.5693 1282.35,-40.7759 1271.76,-41.0165 1274.22,-47.5693"/>
<text text-anchor="middle" x="1240" y="-53.226" font-family="Times,serif" font-size="14.00">N:cat</text>
</g>
<!-- 10&#45;&gt;11 -->
<g id="edge24" class="edge"><title>10&#45;&gt;11</title>
<path fill="none" stroke="black" d="M1199.91,-28.4795C1204.81,-28.0432 1210.1,-27.6449 1215,-27.426 1237.2,-26.4339 1242.79,-26.5392 1265,-27.426 1266.51,-27.4862 1268.05,-27.5601 1269.61,-27.6446"/>
<polygon fill="black" stroke="black" points="1269.7,-31.1583 1279.91,-28.3255 1270.16,-24.1735 1269.7,-31.1583"/>
<text text-anchor="middle" x="1240" y="-31.226" font-family="Times,serif" font-size="14.00">N:dog</text>
</g>
<!-- 10&#45;&gt;11 -->
<g id="edge25" class="edge"><title>10&#45;&gt;11</title>
<path fill="none" stroke="black" d="M1195.82,-17.7851C1201.41,-13.6426 1208.12,-9.55818 1215,-7.42596 1236.22,-0.841039 1243.61,-1.38959 1265,-7.42596 1268.59,-8.43989 1272.18,-9.905 1275.63,-11.6121"/>
<polygon fill="black" stroke="black" points="1273.94,-14.6785 1284.37,-16.5522 1277.39,-8.58452 1273.94,-14.6785"/>
<text text-anchor="middle" x="1240" y="-11.226" font-family="Times,serif" font-size="14.00">N:mouse</text>
</g>
</g>
</svg>
