<?xml version="1.0" encoding="UTF-8" standalone="no"?>
<!DOCTYPE svg PUBLIC "-//W3C//DTD SVG 1.1//EN"
 "http://www.w3.org/Graphics/SVG/1.1/DTD/svg11.dtd">
<!-- Generated by graphviz version 2.38.0 (20140413.2041)
 -->
<!-- Title: FST Pages: 1 -->
<svg width="612pt" height="23pt"
 viewBox="0.00 0.00 612.00 22.93" xmlns="http://www.w3.org/2000/svg" xmlns:xlink="http://www.w3.org/1999/xlink">
<g id="graph0" class="graph" transform="scale(0.31661 0.31661) rotate(0) translate(4 68.426)">
<title>FST</title>
<polygon fill="white" stroke="none" points="-4,4 -4,-68.426 1928.98,-68.426 1928.98,4 -4,4"/>
<!-- 0 -->
<g id="node1" class="node"><title>0</title>
<ellipse fill="none" stroke="black" stroke-width="2" cx="18" cy="-30.426" rx="18" ry="18"/>
<text text-anchor="middle" x="18" y="-26.726" font-family="Times,serif" font-size="14.00">0</text>
</g>
<!-- 1 -->
<g id="node2" class="node"><title>1</title>
<ellipse fill="none" stroke="black" cx="131" cy="-30.426" rx="18" ry="18"/>
<text text-anchor="middle" x="131" y="-26.726" font-family="Times,serif" font-size="14.00">1</text>
</g>
<!-- 0&#45;&gt;1 -->
<g id="edge1" class="edge"><title>0&#45;&gt;1</title>
<path fill="none" stroke="black" d="M36.3438,-30.426C54.1015,-30.426 81.9602,-30.426 102.683,-30.426"/>
<polygon fill="black" stroke="black" points="102.778,-33.9261 112.778,-30.426 102.778,-26.9261 102.778,-33.9261"/>
<text text-anchor="middle" x="74.5" y="-34.226" font-family="Times,serif" font-size="14.00">DET:the</text>
</g>
<!-- 0&#45;&gt;1 -->
<g id="edge2" class="edge"><title>0&#45;&gt;1</title>
<path fill="none" stroke="black" d="M32.9086,-19.9652C38.2739,-16.5411 44.6448,-13.1705 51,-11.426 71.1437,-5.89641 77.8563,-5.89641 98,-11.426 101.078,-12.271 104.16,-13.4975 107.13,-14.9268"/>
<polygon fill="black" stroke="black" points="105.659,-18.1152 116.091,-19.9652 109.09,-12.0135 105.659,-18.1152"/>
<text text-anchor="middle" x="74.5" y="-15.226" font-family="Times,serif" font-size="14.00">DET:a</text>
</g>
<!-- 2 -->
<g id="node3" class="node"><title>2</title>
<ellipse fill="none" stroke="black" cx="247" cy="-30.426" rx="18" ry="18"/>
<text text-anchor="middle" x="247" y="-26.726" font-family="Times,serif" font-size="14.00">2</text>
</g>
<!-- 1&#45;&gt;2 -->
<g id="edge3" class="edge"><title>1&#45;&gt;2</title>
<path fill="none" stroke="black" d="M146.752,-39.5888C151.998,-42.3549 158.076,-45.0274 164,-46.426 185.628,-51.5316 192.372,-51.5316 214,-46.426 216.684,-45.7923 219.4,-44.897 222.056,-43.8499"/>
<polygon fill="black" stroke="black" points="223.648,-46.9701 231.248,-39.5888 220.703,-40.6193 223.648,-46.9701"/>
<text text-anchor="middle" x="189" y="-53.226" font-family="Times,serif" font-size="14.00">N:cat</text>
</g>
<!-- 1&#45;&gt;2 -->
<g id="edge4" class="edge"><title>1&#45;&gt;2</title>
<path fill="none" stroke="black" d="M148.903,-27.9145C153.765,-27.3004 159.083,-26.7321 164,-26.426 186.179,-25.0451 191.821,-25.0451 214,-26.426 215.537,-26.5216 217.112,-26.6429 218.701,-26.7832"/>
<polygon fill="black" stroke="black" points="218.777,-30.312 229.097,-27.9145 219.535,-23.3531 218.777,-30.312"/>
<text text-anchor="middle" x="189" y="-30.226" font-family="Times,serif" font-size="14.00">N:dog</text>
</g>
<!-- 1&#45;&gt;2 -->
<g id="edge5" class="edge"><title>1&#45;&gt;2</title>
<path fill="none" stroke="black" d="M144.198,-17.7701C149.728,-12.9215 156.667,-7.95065 164,-5.42596 185.012,1.80865 192.988,1.80865 214,-5.42596 218.125,-6.8461 222.125,-9.04021 225.82,-11.5512"/>
<polygon fill="black" stroke="black" points="223.762,-14.3853 233.802,-17.7701 228.065,-8.86332 223.762,-14.3853"/>
<text text-anchor="middle" x="189" y="-9.22596" font-family="Times,serif" font-size="14.00">N:mouse</text>
</g>
<!-- 3 -->
<g id="node4" class="node"><title>3</title>
<ellipse fill="none" stroke="black" cx="364" cy="-30.426" rx="18" ry="18"/>
<text text-anchor="middle" x="364" y="-26.726" font-family="Times,serif" font-size="14.00">3</text>
</g>
<!-- 2&#45;&gt;3 -->
<g id="edge6" class="edge"><title>2&#45;&gt;3</title>
<path fill="none" stroke="black" d="M265.466,-30.426C284.064,-30.426 313.756,-30.426 335.499,-30.426"/>
<polygon fill="black" stroke="black" points="335.746,-33.9261 345.746,-30.426 335.746,-26.9261 335.746,-33.9261"/>
<text text-anchor="middle" x="305.5" y="-34.226" font-family="Times,serif" font-size="14.00">V:chased</text>
</g>
<!-- 2&#45;&gt;3 -->
<g id="edge7" class="edge"><title>2&#45;&gt;3</title>
<path fill="none" stroke="black" d="M261.909,-19.9652C267.274,-16.5411 273.645,-13.1705 280,-11.426 301.858,-5.42581 309.142,-5.42581 331,-11.426 334.078,-12.271 337.16,-13.4975 340.13,-14.9268"/>
<polygon fill="black" stroke="black" points="338.659,-18.1152 349.091,-19.9652 342.09,-12.0135 338.659,-18.1152"/>
<text text-anchor="middle" x="305.5" y="-15.226" font-family="Times,serif" font-size="14.00">V:bit</text>
</g>
<!-- 4 -->
<g id="node5" class="node"><title>4</title>
<ellipse fill="none" stroke="black" cx="477" cy="-30.426" rx="18" ry="18"/>
<text text-anchor="middle" x="477" y="-26.726" font-family="Times,serif" font-size="14.00">4</text>
</g>
<!-- 3&#45;&gt;4 -->
<g id="edge8" class="edge"><title>3&#45;&gt;4</title>
<path fill="none" stroke="black" d="M382.344,-30.426C400.102,-30.426 427.96,-30.426 448.683,-30.426"/>
<polygon fill="black" stroke="black" points="448.778,-33.9261 458.778,-30.426 448.778,-26.9261 448.778,-33.9261"/>
<text text-anchor="middle" x="420.5" y="-34.226" font-family="Times,serif" font-size="14.00">DET:the</text>
</g>
<!-- 3&#45;&gt;4 -->
<g id="edge9" class="edge"><title>3&#45;&gt;4</title>
<path fill="none" stroke="black" d="M378.909,-19.9652C384.274,-16.5411 390.645,-13.1705 397,-11.426 417.144,-5.89641 423.856,-5.89641 444,-11.426 447.078,-12.271 450.16,-13.4975 453.13,-14.9268"/>
<polygon fill="black" stroke="black" points="451.659,-18.1152 462.091,-19.9652 455.09,-12.0135 451.659,-18.1152"/>
<text text-anchor="middle" x="420.5" y="-15.226" font-family="Times,serif" font-size="14.00">DET:a</text>
</g>
<!-- 5 -->
<g id="node6" class="node"><title>5</title>
<ellipse fill="none" stroke="black" cx="597" cy="-30.426" rx="18" ry="18"/>
<ellipse fill="none" stroke="black" cx="597" cy="-30.426" rx="22" ry="22"/>
<text text-anchor="middle" x="597" y="-26.726" font-family="Times,serif" font-size="14.00">5</text>
</g>
<!-- 4&#45;&gt;5 -->
<g id="edge10" class="edge"><title>4&#45;&gt;5</title>
<path fill="none" stroke="black" d="M492.752,-39.5888C497.998,-42.3549 504.076,-45.0274 510,-46.426 531.628,-51.5316 538.262,-51.0391 560,-46.426 562.517,-45.8918 565.072,-45.169 567.599,-44.3246"/>
<polygon fill="black" stroke="black" points="569.041,-47.5188 577.071,-40.6068 566.483,-41.0028 569.041,-47.5188"/>
<text text-anchor="middle" x="535" y="-53.226" font-family="Times,serif" font-size="14.00">N:cat</text>
</g>
<!-- 4&#45;&gt;5 -->
<g id="edge11" class="edge"><title>4&#45;&gt;5</title>
<path fill="none" stroke="black" d="M494.919,-28.5421C499.781,-28.0816 505.095,-27.6554 510,-27.426 532.198,-26.3877 537.797,-26.5024 560,-27.426 561.527,-27.4895 563.09,-27.5681 564.668,-27.6584"/>
<polygon fill="black" stroke="black" points="564.859,-31.1802 575.079,-28.3866 565.347,-24.1973 564.859,-31.1802"/>
<text text-anchor="middle" x="535" y="-31.226" font-family="Times,serif" font-size="14.00">N:dog</text>
</g>
<!-- 4&#45;&gt;5 -->
<g id="edge12" class="edge"><title>4&#45;&gt;5</title>
<path fill="none" stroke="black" d="M490.667,-18.524C496.173,-14.1388 502.967,-9.6913 510,-7.42596 531.152,-0.613036 538.67,-1.19375 560,-7.42596 563.631,-8.48676 567.244,-10.0377 570.702,-11.8415"/>
<polygon fill="black" stroke="black" points="569.021,-14.9144 579.4,-17.0433 572.614,-8.90676 569.021,-14.9144"/>
<text text-anchor="middle" x="535" y="-11.226" font-family="Times,serif" font-size="14.00">N:mouse</text>
</g>
<!-- 6 -->
<g id="node7" class="node"><title>6</title>
<ellipse fill="none" stroke="black" cx="714" cy="-30.426" rx="18" ry="18"/>
<text text-anchor="middle" x="714" y="-26.726" font-family="Times,serif" font-size="14.00">6</text>
</g>
<!-- 5&#45;&gt;6 -->
<g id="edge13" class="edge"><title>5&#45;&gt;6</title>
<path fill="none" stroke="black" d="M619.093,-30.426C637.781,-30.426 665.185,-30.426 685.571,-30.426"/>
<polygon fill="black" stroke="black" points="685.791,-33.9261 695.791,-30.426 685.791,-26.9261 685.791,-33.9261"/>
<text text-anchor="middle" x="657.5" y="-34.226" font-family="Times,serif" font-size="14.00">DET:the</text>
</g>
<!-- 5&#45;&gt;6 -->
<g id="edge14" class="edge"><title>5&#45;&gt;6</title>
<path fill="none" stroke="black" d="M615.992,-18.7488C621.544,-15.7575 627.826,-12.9552 634,-11.426 654.276,-6.4036 660.856,-5.89641 681,-11.426 684.078,-12.271 687.16,-13.4975 690.13,-14.9268"/>
<polygon fill="black" stroke="black" points="688.659,-18.1152 699.091,-19.9652 692.09,-12.0135 688.659,-18.1152"/>
<text text-anchor="middle" x="657.5" y="-15.226" font-family="Times,serif" font-size="14.00">DET:a</text>
</g>
<!-- 7 -->
<g id="node8" class="node"><title>7</title>
<ellipse fill="none" stroke="black" cx="830" cy="-30.426" rx="18" ry="18"/>
<text text-anchor="middle" x="830" y="-26.726" font-family="Times,serif" font-size="14.00">7</text>
</g>
<!-- 6&#45;&gt;7 -->
<g id="edge15" class="edge"><title>6&#45;&gt;7</title>
<path fill="none" stroke="black" d="M729.752,-39.5888C734.998,-42.3549 741.076,-45.0274 747,-46.426 768.628,-51.5316 775.372,-51.5316 797,-46.426 799.684,-45.7923 802.4,-44.897 805.056,-43.8499"/>
<polygon fill="black" stroke="black" points="806.648,-46.9701 814.248,-39.5888 803.703,-40.6193 806.648,-46.9701"/>
<text text-anchor="middle" x="772" y="-53.226" font-family="Times,serif" font-size="14.00">N:cat</text>
</g>
<!-- 6&#45;&gt;7 -->
<g id="edge16" class="edge"><title>6&#45;&gt;7</title>
<path fill="none" stroke="black" d="M731.903,-27.9145C736.765,-27.3004 742.083,-26.7321 747,-26.426 769.179,-25.0451 774.821,-25.0451 797,-26.426 798.537,-26.5216 800.112,-26.6429 801.701,-26.7832"/>
<polygon fill="black" stroke="black" points="801.777,-30.312 812.097,-27.9145 802.535,-23.3531 801.777,-30.312"/>
<text text-anchor="middle" x="772" y="-30.226" font-family="Times,serif" font-size="14.00">N:dog</text>
</g>
<!-- 6&#45;&gt;7 -->
<g id="edge17" class="edge"><title>6&#45;&gt;7</title>
<path fill="none" stroke="black" d="M727.198,-17.7701C732.728,-12.9215 739.667,-7.95065 747,-5.42596 768.012,1.80865 775.988,1.80865 797,-5.42596 801.125,-6.8461 805.125,-9.04021 808.82,-11.5512"/>
<polygon fill="black" stroke="black" points="806.762,-14.3853 816.802,-17.7701 811.065,-8.86332 806.762,-14.3853"/>
<text text-anchor="middle" x="772" y="-9.22596" font-family="Times,serif" font-size="14.00">N:mouse</text>
</g>
<!-- 8 -->
<g id="node9" class="node"><title>8</title>
<ellipse fill="none" stroke="black" cx="947" cy="-30.426" rx="18" ry="18"/>
<text text-anchor="middle" x="947" y="-26.726" font-family="Times,serif" font-size="14.00">8</text>
</g>
<!-- 7&#45;&gt;8 -->
<g id="edge18" class="edge"><title>7&#45;&gt;8</title>
<path fill="none" stroke="black" d="M848.466,-30.426C867.064,-30.426 896.756,-30.426 918.499,-30.426"/>
<polygon fill="black" stroke="black" points="918.746,-33.9261 928.746,-30.426 918.746,-26.9261 918.746,-33.9261"/>
<text text-anchor="middle" x="888.5" y="-34.226" font-family="Times,serif" font-size="14.00">V:chased</text>
</g>
<!-- 7&#45;&gt;8 -->
<g id="edge19" class="edge"><title>7&#45;&gt;8</title>
<path fill="none" stroke="black" d="M844.909,-19.9652C850.274,-16.5411 856.645,-13.1705 863,-11.426 884.858,-5.42581 892.142,-5.42581 914,-11.426 917.078,-12.271 920.16,-13.4975 923.13,-14.9268"/>
<polygon fill="black" stroke="black" points="921.659,-18.1152 932.091,-19.9652 925.09,-12.0135 921.659,-18.1152"/>
<text text-anchor="middle" x="888.5" y="-15.226" font-family="Times,serif" font-size="14.00">V:bit</text>
</g>
<!-- 9 -->
<g id="node10" class="node"><title>9</title>
<ellipse fill="none" stroke="black" cx="1060" cy="-30.426" rx="18" ry="18"/>
<text text-anchor="middle" x="1060" y="-26.726" font-family="Times,serif" font-size="14.00">9</text>
</g>
<!-- 8&#45;&gt;9 -->
<g id="edge20" class="edge"><title>8&#45;&gt;9</title>
<path fill="none" stroke="black" d="M965.344,-30.426C983.102,-30.426 1010.96,-30.426 1031.68,-30.426"/>
<polygon fill="black" stroke="black" points="1031.78,-33.9261 1041.78,-30.426 1031.78,-26.9261 1031.78,-33.9261"/>
<text text-anchor="middle" x="1003.5" y="-34.226" font-family="Times,serif" font-size="14.00">DET:the</text>
</g>
<!-- 8&#45;&gt;9 -->
<g id="edge21" class="edge"><title>8&#45;&gt;9</title>
<path fill="none" stroke="black" d="M961.909,-19.9652C967.274,-16.5411 973.645,-13.1705 980,-11.426 1000.14,-5.89641 1006.86,-5.89641 1027,-11.426 1030.08,-12.271 1033.16,-13.4975 1036.13,-14.9268"/>
<polygon fill="black" stroke="black" points="1034.66,-18.1152 1045.09,-19.9652 1038.09,-12.0135 1034.66,-18.1152"/>
<text text-anchor="middle" x="1003.5" y="-15.226" font-family="Times,serif" font-size="14.00">DET:a</text>
</g>
<!-- 10 -->
<g id="node11" class="node"><title>10</title>
<ellipse fill="none" stroke="black" cx="1181.5" cy="-30.426" rx="19.4968" ry="19.4968"/>
<ellipse fill="none" stroke="black" cx="1181.5" cy="-30.426" rx="23.4965" ry="23.4965"/>
<text text-anchor="middle" x="1181.5" y="-26.726" font-family="Times,serif" font-size="14.00">10</text>
</g>
<!-- 9&#45;&gt;10 -->
<g id="edge22" class="edge"><title>9&#45;&gt;10</title>
<path fill="none" stroke="black" d="M1075.75,-39.5888C1081,-42.3549 1087.08,-45.0274 1093,-46.426 1114.63,-51.5316 1121.23,-50.8767 1143,-46.426 1145.64,-45.8864 1148.32,-45.1536 1150.98,-44.2969"/>
<polygon fill="black" stroke="black" points="1152.22,-47.5693 1160.35,-40.7759 1149.76,-41.0165 1152.22,-47.5693"/>
<text text-anchor="middle" x="1118" y="-53.226" font-family="Times,serif" font-size="14.00">N:cat</text>
</g>
<!-- 9&#45;&gt;10 -->
<g id="edge23" class="edge"><title>9&#45;&gt;10</title>
<path fill="none" stroke="black" d="M1077.92,-28.5421C1082.78,-28.0816 1088.1,-27.6554 1093,-27.426 1115.2,-26.3877 1120.8,-26.5392 1143,-27.426 1144.51,-27.4862 1146.05,-27.5601 1147.61,-27.6446"/>
<polygon fill="black" stroke="black" points="1147.7,-31.1583 1157.91,-28.3255 1148.16,-24.1735 1147.7,-31.1583"/>
<text text-anchor="middle" x="1118" y="-31.226" font-family="Times,serif" font-size="14.00">N:dog</text>
</g>
<!-- 9&#45;&gt;10 -->
<g id="edge24" class="edge"><title>9&#45;&gt;10</title>
<path fill="none" stroke="black" d="M1073.67,-18.524C1079.17,-14.1388 1085.97,-9.6913 1093,-7.42596 1114.15,-0.613036 1121.61,-1.38959 1143,-7.42596 1146.59,-8.43989 1150.18,-9.905 1153.63,-11.6121"/>
<polygon fill="black" stroke="black" points="1151.95,-14.6785 1162.37,-16.5522 1155.39,-8.58452 1151.95,-14.6785"/>
<text text-anchor="middle" x="1118" y="-11.226" font-family="Times,serif" font-size="14.00">N:mouse</text>
</g>
<!-- 11 -->
<g id="node12" class="node"><title>11</title>
<ellipse fill="none" stroke="black" cx="1307.49" cy="-30.426" rx="19.4965" ry="19.4965"/>
<text text-anchor="middle" x="1307.49" y="-26.726" font-family="Times,serif" font-size="14.00">11</text>
</g>
<!-- 10&#45;&gt;11 -->
<g id="edge25" class="edge"><title>10&#45;&gt;11</title>
<path fill="none" stroke="black" d="M1205.24,-30.426C1225.67,-30.426 1255.76,-30.426 1277.83,-30.426"/>
<polygon fill="black" stroke="black" points="1277.94,-33.9261 1287.94,-30.426 1277.94,-26.9261 1277.94,-33.9261"/>
<text text-anchor="middle" x="1246.5" y="-34.226" font-family="Times,serif" font-size="14.00">AND:and</text>
</g>
<!-- 12 -->
<g id="node13" class="node"><title>12</title>
<ellipse fill="none" stroke="black" cx="1423.49" cy="-30.426" rx="19.4965" ry="19.4965"/>
<text text-anchor="middle" x="1423.49" y="-26.726" font-family="Times,serif" font-size="14.00">12</text>
</g>
<!-- 11&#45;&gt;12 -->
<g id="edge26" class="edge"><title>11&#45;&gt;12</title>
<path fill="none" stroke="black" d="M1327.06,-30.426C1345.12,-30.426 1372.79,-30.426 1393.7,-30.426"/>
<polygon fill="black" stroke="black" points="1393.93,-33.9261 1403.93,-30.426 1393.93,-26.9261 1393.93,-33.9261"/>
<text text-anchor="middle" x="1365.49" y="-34.226" font-family="Times,serif" font-size="14.00">DET:the</text>
</g>
<!-- 11&#45;&gt;12 -->
<g id="edge27" class="edge"><title>11&#45;&gt;12</title>
<path fill="none" stroke="black" d="M1323.78,-19.5576C1329.26,-16.2737 1335.66,-13.0976 1341.99,-11.426 1362.19,-6.09675 1368.8,-6.09675 1388.99,-11.426 1392.06,-12.2357 1395.14,-13.3983 1398.13,-14.7553"/>
<polygon fill="black" stroke="black" points="1396.73,-17.9723 1407.2,-19.5576 1400,-11.7856 1396.73,-17.9723"/>
<text text-anchor="middle" x="1365.49" y="-15.226" font-family="Times,serif" font-size="14.00">DET:a</text>
</g>
<!-- 13 -->
<g id="node14" class="node"><title>13</title>
<ellipse fill="none" stroke="black" cx="1542.49" cy="-30.426" rx="19.4965" ry="19.4965"/>
<text text-anchor="middle" x="1542.49" y="-26.726" font-family="Times,serif" font-size="14.00">13</text>
</g>
<!-- 12&#45;&gt;13 -->
<g id="edge28" class="edge"><title>12&#45;&gt;13</title>
<path fill="none" stroke="black" d="M1440.66,-39.9303C1446,-42.5745 1452.08,-45.0873 1457.99,-46.426 1479.66,-51.3362 1486.32,-51.3362 1507.99,-46.426 1510.67,-45.8194 1513.38,-44.9717 1516.04,-43.98"/>
<polygon fill="black" stroke="black" points="1517.56,-47.1391 1525.32,-39.9303 1514.76,-40.7239 1517.56,-47.1391"/>
<text text-anchor="middle" x="1482.99" y="-53.226" font-family="Times,serif" font-size="14.00">N:cat</text>
</g>
<!-- 12&#45;&gt;13 -->
<g id="edge29" class="edge"><title>12&#45;&gt;13</title>
<path fill="none" stroke="black" d="M1442.89,-27.831C1447.78,-27.2492 1453.08,-26.7181 1457.99,-26.426 1480.17,-25.1062 1485.81,-25.1062 1507.99,-26.426 1509.52,-26.5173 1511.1,-26.6319 1512.68,-26.7641"/>
<polygon fill="black" stroke="black" points="1512.79,-30.2933 1523.09,-27.831 1513.5,-23.3298 1512.79,-30.2933"/>
<text text-anchor="middle" x="1482.99" y="-30.226" font-family="Times,serif" font-size="14.00">N:dog</text>
</g>
<!-- 12&#45;&gt;13 -->
<g id="edge30" class="edge"><title>12&#45;&gt;13</title>
<path fill="none" stroke="black" d="M1438.4,-17.4974C1444.05,-13.0893 1450.91,-8.70169 1457.99,-6.42596 1479.15,0.37094 1486.83,0.37094 1507.99,-6.42596 1511.86,-7.6705 1515.67,-9.54665 1519.25,-11.7123"/>
<polygon fill="black" stroke="black" points="1517.37,-14.6671 1527.58,-17.4974 1521.36,-8.91789 1517.37,-14.6671"/>
<text text-anchor="middle" x="1482.99" y="-10.226" font-family="Times,serif" font-size="14.00">N:mouse</text>
</g>
<!-- 14 -->
<g id="node15" class="node"><title>14</title>
<ellipse fill="none" stroke="black" cx="1662.48" cy="-30.426" rx="19.4965" ry="19.4965"/>
<text text-anchor="middle" x="1662.48" y="-26.726" font-family="Times,serif" font-size="14.00">14</text>
</g>
<!-- 13&#45;&gt;14 -->
<g id="edge31" class="edge"><title>13&#45;&gt;14</title>
<path fill="none" stroke="black" d="M1562.18,-30.426C1581.17,-30.426 1610.83,-30.426 1632.79,-30.426"/>
<polygon fill="black" stroke="black" points="1632.88,-33.9261 1642.88,-30.426 1632.87,-26.9261 1632.88,-33.9261"/>
<text text-anchor="middle" x="1602.49" y="-34.226" font-family="Times,serif" font-size="14.00">V:chased</text>
</g>
<!-- 13&#45;&gt;14 -->
<g id="edge32" class="edge"><title>13&#45;&gt;14</title>
<path fill="none" stroke="black" d="M1558.78,-19.5576C1564.26,-16.2737 1570.65,-13.0976 1576.99,-11.426 1598.9,-5.6432 1606.07,-5.6432 1627.99,-11.426 1631.05,-12.2357 1634.14,-13.3983 1637.12,-14.7553"/>
<polygon fill="black" stroke="black" points="1635.72,-17.9723 1646.19,-19.5576 1638.99,-11.7856 1635.72,-17.9723"/>
<text text-anchor="middle" x="1602.49" y="-15.226" font-family="Times,serif" font-size="14.00">V:bit</text>
</g>
<!-- 15 -->
<g id="node16" class="node"><title>15</title>
<ellipse fill="none" stroke="black" cx="1778.48" cy="-30.426" rx="19.4965" ry="19.4965"/>
<text text-anchor="middle" x="1778.48" y="-26.726" font-family="Times,serif" font-size="14.00">15</text>
</g>
<!-- 14&#45;&gt;15 -->
<g id="edge33" class="edge"><title>14&#45;&gt;15</title>
<path fill="none" stroke="black" d="M1682.05,-30.426C1700.11,-30.426 1727.78,-30.426 1748.69,-30.426"/>
<polygon fill="black" stroke="black" points="1748.92,-33.9261 1758.92,-30.426 1748.92,-26.9261 1748.92,-33.9261"/>
<text text-anchor="middle" x="1720.48" y="-34.226" font-family="Times,serif" font-size="14.00">DET:the</text>
</g>
<!-- 14&#45;&gt;15 -->
<g id="edge34" class="edge"><title>14&#45;&gt;15</title>
<path fill="none" stroke="black" d="M1678.77,-19.5576C1684.25,-16.2737 1690.65,-13.0976 1696.98,-11.426 1717.18,-6.09675 1723.79,-6.09675 1743.98,-11.426 1747.05,-12.2357 1750.13,-13.3983 1753.12,-14.7553"/>
<polygon fill="black" stroke="black" points="1751.72,-17.9723 1762.19,-19.5576 1754.99,-11.7856 1751.72,-17.9723"/>
<text text-anchor="middle" x="1720.48" y="-15.226" font-family="Times,serif" font-size="14.00">DET:a</text>
</g>
<!-- 16 -->
<g id="node17" class="node"><title>16</title>
<ellipse fill="none" stroke="black" cx="1901.48" cy="-30.426" rx="19.4968" ry="19.4968"/>
<ellipse fill="none" stroke="black" cx="1901.48" cy="-30.426" rx="23.4965" ry="23.4965"/>
<text text-anchor="middle" x="1901.48" y="-26.726" font-family="Times,serif" font-size="14.00">16</text>
</g>
<!-- 15&#45;&gt;16 -->
<g id="edge35" class="edge"><title>15&#45;&gt;16</title>
<path fill="none" stroke="black" d="M1795.65,-39.9303C1800.98,-42.5745 1807.07,-45.0873 1812.98,-46.426 1834.65,-51.3362 1841.21,-50.8767 1862.98,-46.426 1865.62,-45.8864 1868.3,-45.1536 1870.96,-44.2969"/>
<polygon fill="black" stroke="black" points="1872.2,-47.5693 1880.33,-40.7759 1869.74,-41.0165 1872.2,-47.5693"/>
<text text-anchor="middle" x="1837.98" y="-53.226" font-family="Times,serif" font-size="14.00">N:cat</text>
</g>
<!-- 15&#45;&gt;16 -->
<g id="edge36" class="edge"><title>15&#45;&gt;16</title>
<path fill="none" stroke="black" d="M1797.89,-28.4795C1802.79,-28.0432 1808.08,-27.6449 1812.98,-27.426 1835.18,-26.4339 1840.77,-26.5392 1862.98,-27.426 1864.49,-27.4862 1866.03,-27.5601 1867.59,-27.6446"/>
<polygon fill="black" stroke="black" points="1867.68,-31.1583 1877.89,-28.3255 1868.14,-24.1735 1867.68,-31.1583"/>
<text text-anchor="middle" x="1837.98" y="-31.226" font-family="Times,serif" font-size="14.00">N:dog</text>
</g>
<!-- 15&#45;&gt;16 -->
<g id="edge37" class="edge"><title>15&#45;&gt;16</title>
<path fill="none" stroke="black" d="M1793.8,-17.7851C1799.39,-13.6426 1806.11,-9.55818 1812.98,-7.42596 1834.2,-0.841039 1841.59,-1.38959 1862.98,-7.42596 1866.57,-8.43989 1870.16,-9.905 1873.61,-11.6121"/>
<polygon fill="black" stroke="black" points="1871.92,-14.6785 1882.35,-16.5522 1875.37,-8.58452 1871.92,-14.6785"/>
<text text-anchor="middle" x="1837.98" y="-11.226" font-family="Times,serif" font-size="14.00">N:mouse</text>
</g>
</g>
</svg>
